<svg width="34" height="34" viewBox="0 0 34 34" fill="none" xmlns="http://www.w3.org/2000/svg">
<rect width="34" height="34" rx="17" fill="#8C4948"/>
<path d="M13.791 24.9688C13.5697 24.7474 13.459 24.4853 13.459 24.1825C13.459 23.8797 13.5697 23.6179 13.791 23.3971L20.2767 16.9115L13.7689 10.4036C13.5623 10.197 13.459 9.9388 13.459 9.62891C13.459 9.31901 13.5697 9.05339 13.791 8.83203C14.0124 8.61068 14.2745 8.5 14.5773 8.5C14.8801 8.5 15.1419 8.61068 15.3626 8.83203L22.8001 16.2917C22.8887 16.3802 22.9515 16.4761 22.9887 16.5794C23.0259 16.6827 23.0442 16.7934 23.0436 16.9115C23.0436 17.0295 23.025 17.1402 22.9878 17.2435C22.9507 17.3468 22.8881 17.4427 22.8001 17.5312L15.3405 24.9909C15.1339 25.1975 14.8792 25.3008 14.5764 25.3008C14.2736 25.3008 14.0118 25.1901 13.791 24.9688Z" fill="white"/>
</svg>
