<svg width="34" height="34" viewBox="0 0 34 34" fill="none" xmlns="http://www.w3.org/2000/svg">
<rect width="34" height="34" rx="17" fill="#8C4948"/>
<path d="M13.79 24.9688C13.5687 24.7474 13.458 24.4853 13.458 24.1825C13.458 23.8797 13.5687 23.6179 13.79 23.3971L20.2757 16.9115L13.7679 10.4036C13.5613 10.197 13.458 9.9388 13.458 9.62891C13.458 9.31901 13.5687 9.05339 13.79 8.83203C14.0114 8.61068 14.2735 8.5 14.5763 8.5C14.8791 8.5 15.1409 8.61068 15.3617 8.83203L22.7992 16.2917C22.8877 16.3802 22.9506 16.4761 22.9877 16.5794C23.0249 16.6827 23.0432 16.7934 23.0426 16.9115C23.0426 17.0295 23.0241 17.1402 22.9869 17.2435C22.9497 17.3468 22.8871 17.4427 22.7992 17.5312L15.3395 24.9909C15.1329 25.1975 14.8782 25.3008 14.5754 25.3008C14.2726 25.3008 14.0108 25.1901 13.79 24.9688Z" fill="white"/>
</svg>
