<svg width="47" height="46" viewBox="0 0 47 46" fill="none" xmlns="http://www.w3.org/2000/svg">
<path d="M27.7904 17.825V23.3833H32.7737C33.157 23.3833 33.3487 23.7667 33.3487 24.15L32.582 27.7917C32.582 27.9833 32.1987 28.175 32.007 28.175H27.7904V42.1667H22.0404V28.3667H18.782C18.3987 28.3667 18.207 28.175 18.207 27.7917V24.15C18.207 23.7667 18.3987 23.575 18.782 23.575H22.0404V17.25C22.0404 13.9917 24.532 11.5 27.7904 11.5H32.9654C33.3487 11.5 33.5404 11.6917 33.5404 12.075V16.675C33.5404 17.0583 33.3487 17.25 32.9654 17.25H28.3654C27.982 17.25 27.7904 17.4417 27.7904 17.825Z" fill="#8C4948"/>
<rect x="5.88602" y="4.92899" width="36.1429" height="36.1429" rx="9.44191" stroke="#8C4948" stroke-width="3.28571"/>
</svg>
