<svg width="47" height="46" viewBox="0 0 47 46" fill="none" xmlns="http://www.w3.org/2000/svg">
<rect x="4.79129" y="4.6829" width="36.1429" height="36.1429" rx="9.44191" stroke="#8C4948" stroke-width="3.28571"/>
<path d="M11.8921 26.2109V18.7786H13.6779V24.7145H16.571V26.2109H11.8921ZM17.8545 26.2109V18.7786H19.6403V26.2109H17.8545ZM21.3423 26.2109V18.7786H23.158L25.0036 22.3401L25.7319 23.9862H25.7818C25.692 23.1981 25.5424 22.1306 25.5424 21.2427V18.7786H27.2383V26.2109H25.4226L23.587 22.6294L22.8587 21.0033H22.8089C22.8887 21.8313 23.0383 22.8489 23.0383 23.7468V26.2109H21.3423ZM28.961 26.2109V18.7786H33.6698V20.2651H30.7467V21.6418H33.2308V23.1382H30.7467V24.7145H33.7795V26.2109H28.961Z" fill="#8C4948"/>
</svg>
