<svg width="70" height="70" viewBox="0 0 70 70" fill="none" xmlns="http://www.w3.org/2000/svg">
<rect x="7.5" y="7.5" width="55" height="55" rx="14.3681" fill="#335AA8" stroke="white" stroke-width="5"/>
<path d="M40.8333 27.125V35.5833H48.4167C49 35.5833 49.2917 36.1667 49.2917 36.75L48.125 42.2917C48.125 42.5833 47.5417 42.875 47.25 42.875H40.8333V65H32.0833V43.1667H27.125C26.5417 43.1667 26.25 42.875 26.25 42.2917V36.75C26.25 36.1667 26.5417 35.875 27.125 35.875H32.0833V26.25C32.0833 21.2917 35.875 17.5 40.8333 17.5H48.7083C49.2917 17.5 49.5833 17.7917 49.5833 18.375V25.375C49.5833 25.9583 49.2917 26.25 48.7083 26.25H41.7083C41.125 26.25 40.8333 26.5417 40.8333 27.125Z" fill="white"/>
</svg>
