<svg width="35" height="34" viewBox="0 0 35 34" fill="none" xmlns="http://www.w3.org/2000/svg">
<rect x="0.378906" width="34" height="34" rx="17" fill="#F0B278"/>
<path d="M14.1694 24.9688C13.9481 24.7474 13.8374 24.4853 13.8374 24.1825C13.8374 23.8797 13.9481 23.6179 14.1694 23.3971L20.6551 16.9115L14.1473 10.4036C13.9407 10.197 13.8374 9.9388 13.8374 9.62891C13.8374 9.31901 13.9481 9.05339 14.1694 8.83203C14.3908 8.61068 14.6529 8.5 14.9557 8.5C15.2585 8.5 15.5203 8.61068 15.741 8.83203L23.1785 16.2917C23.2671 16.3802 23.33 16.4761 23.3671 16.5794C23.4043 16.6827 23.4226 16.7934 23.422 16.9115C23.422 17.0295 23.4034 17.1402 23.3663 17.2435C23.3291 17.3468 23.2665 17.4427 23.1785 17.5312L15.7189 24.9909C15.5123 25.1975 15.2576 25.3008 14.9548 25.3008C14.652 25.3008 14.3902 25.1901 14.1694 24.9688Z" fill="white"/>
</svg>
