<?xml version="1.0" encoding="UTF-8"?>
<svg id="_圖層_1" data-name="圖層 1" xmlns="http://www.w3.org/2000/svg" viewBox="0 0 850.39 850.39">
  <g>
    <path d="m672.32,391.41c.21-2.38,2.09-5.27,2.86-7.62.87-2.64,1.59-5.32,2.2-8.03,1.22-5.45,1.97-10.98,2.55-16.53.16-1.53.49-3.33,1.88-3.98.92-.43,2.05-.17,2.88.42s1.41,1.46,1.92,2.34c2.24,3.84,3.56,8.23,3.8,12.67.1,1.93,0,3.92.44,5.81s1.17,2.4.45,4.22c-.98,2.49-2.54,4.85-4.51,6.66-1.86,1.71-4.13,2.88-6.57,3.53-2.24.59-5.65.89-7.91.51Z" fill="#8d4844"/>
    <path d="m584.25,140.61s-36.88,19.05-53.51,44.9c0,0,3.17,19.65,29.93,20.86,0,0,37.79-58.8,23.58-65.76Z" fill="#fff"/>
    <path d="m339.36,155.27s58.8,14.66,68.33,52.46l-19.95,23.58s-55.78-48.07-48.37-76.04Z" fill="#fff"/>
    <path d="m558.7,528.05s-39.3,14.36-93.42,4.84c0,0-18.54,78.41,59.86,93.52,0,0,40.71-60.47,33.56-98.36Z" fill="#fff"/>
    <path d="m575.17,467.34c-.36,9.67-.49,19.01-1.08,28.33-2.06,32.4-7.2,64.23-18.6,94.8-1.65,4.43-4.06,8.63-5.29,13.16-1.23,4.52.54,9.25.3,13.95-.59,11.78-1.6,23.51-3.45,35.16-.58,3.62-.55,3.63,3.13,3.52,16.17-.48,31.79,1.8,46.13,9.77,11.43,6.35,19.94,15.26,23.29,28.33.78,3.06,1.12,6.09-.16,9.18-1.99,4.81-5.7,7-10.65,7.76-15.97,2.43-32.02,3.62-48.18,3.09-22.8-.76-45.01-4.71-66.65-12.05-5.96-2.02-8.92-5.81-9.2-11.97-.16-3.52-.57-7.04-.6-10.56-.02-2.39-.53-2.76-2.67-1.55-9.52,5.36-19.59,9.41-30.21,12.04-3.92.97-7.9,1.58-11.95,1.67-1.94.04-3.94,0-5.6-.97-1.97-1.15-2.34-.37-2.97,1.41-1.04,2.94.83,2.83,2.66,3.09,14.53,2.11,28.34,6.22,40.24,15.2,11.1,8.38,18.07,19.2,18.08,33.53,0,5.29-.99,10.51-5.97,13.81-3.06,2.03-6.6,2.42-10.11,2.68-24.52,1.82-48.61.05-72.28-7.33-14.06-4.38-28.12-8.55-41.13-15.58-3.36-1.81-6.53-3.99-9.7-6.13-3.04-2.05-4.51-5-4.64-8.7-.32-9.38.09-18.73.99-28.07.38-3.87.45-3.85-3.27-3.86-15.93-.06-31.19-3.35-45.77-9.73-1.24-.54-2.31-.95-3.68-.21-18.61,10.01-38.73,15.17-59.45,18.34-20.94,3.21-42,5.03-63.21,4.52-20.24-.49-39.72-4.83-58.72-11.59-2.28-.81-4.44-1.93-6.36-3.43-6.59-5.14-6.27-13.34.76-17.9,4.37-2.83,9.39-4.11,14.29-5.6,26.32-7.99,52.26-17.03,77.42-28.15,10.84-4.79,20.53-11.5,29.58-19.14,1.26-1.07,1.63-1.92.72-3.54-11.12-19.71-12.95-40.76-8.84-62.65,4.12-21.99,13.99-41.04,29.37-57.23,8.74-9.2,17.63-18.25,26.47-27.34,3.66-3.76,7.07-7.72,10.31-11.84.97-1.24,1.25-2.31.07-3.72-12.55-15.11-16.93-33.07-18.05-52.15-.16-2.71-.15-5.44-.13-8.16.01-1.43-.25-2.23-1.99-2.14-7.63.4-15.26.18-22.9,1-10.62,1.13-21.34,1.79-31.68-2.07-15.47-5.77-25.94-16.9-33.35-31.25-4.39-8.5-7.04-17.56-8.26-27.02-.27-2.06-1.04-2.63-3.04-2.66-10.27-.18-20.55-.51-30.82-.76-1.72-.04-3.43-.15-5.06-.72-3.45-1.22-5.68-4.46-5.45-7.86.24-3.46,2.81-6.39,6.39-7.15,2.49-.53,5.02-.3,7.54-.23,8.86.27,17.73.44,26.58.88,2.64.13,3.4-.69,3.67-3.25,1.5-14.21,6.06-27.31,15.08-38.56,10.41-12.97,23.69-20.17,40.69-20.17,15.8,0,31.55.98,47.28,2.18,4.9.37,8.78,3.86,12.28,7.22,7.5,7.21,12.32,16.12,15.59,25.88.75,2.23,1.79,3.06,4.15,3.35,13.27,1.63,23.55,12.05,25.66,25.97.37,2.46,1.11,3.37,3.72,3.43,7.85.19,15.7.68,23.54,1.14,1.95.11,2.63-.1,2.06-2.43-7.4-30.39-3.93-59.76,8.66-88.21.46-1.04,1.38-1.99-.31-3.01-10.31-6.21-17.29-15.61-23.58-25.49-8.88-13.94-14.27-29.08-13.99-45.85.12-6.85,1.43-13.47,5.3-19.26,6.31-9.43,15.76-11.62,26.27-10.64,15.34,1.44,28.6,7.98,40.48,17.45,8.27,6.6,16.07,13.74,22.89,21.88.97,1.15,1.86,1.49,3.36.97,20.88-7.28,42.29-8.66,64.06-5.48,2.08.3,2.91-.46,3.95-2.15,12.34-19.98,28.78-35.4,50.73-44.37,7.75-3.17,15.94-4.44,24.3-2.91,12.72,2.33,21.25,12.01,22.35,25.05.98,11.5-2.31,22.14-6.58,32.55-4.49,10.93-10,21.34-16.45,31.23-1.95,2.99-2.51,5.02-.3,8.62,7.33,11.94,13.08,24.73,17.53,38.05,5.8,17.36,9.06,35.08,7.6,53.47-.67,8.38-2.3,16.56-5.33,24.41-.82,2.13-.45,2.75,1.88,2.8,5.65.11,5.65.21,6.44-5.44,3.87-27.77,23.79-49.39,51.2-55.2,9.01-1.91,18.24-1.74,27.41-1.39,10.87.41,21.72,1.51,32.59,1.61,8.97.08,15.51,4.23,21.07,10.52,12.02,13.61,18.19,29.74,20,47.67.23,2.3.42,4.62.42,6.94,0,1.58.6,2.09,2.12,2.13,3.32.08,6.65.17,9.95.51,4.58.47,7.69,3.86,7.54,7.91-.16,4.21-3.28,7.43-7.81,7.72-2.91.18-5.84.02-8.76-.05-4.33-.1-4.3-.12-5.15,4.02-3.41,16.54-10.61,31.15-22.05,43.67-4.13,4.51-9,6.85-15.13,6.87-9.67.02-19.34.06-29-.59-3.58-.24-6.98-1.76-10.75-.94-1.93.42-2.91,1.02-3.62,2.86-4.92,12.82-10.95,25.1-18.65,36.5-7.26,10.75-15.61,20.49-26.53,27.78-15.63,10.44-34.3,11.92-49.98-.56-.22-.18-.5-.29-1.08-.61Zm-313.09-173.29c-.68-1.67,1.76-4.88-2.39-4.83-.74-1.28-1.52-2.55-2.21-3.86-.94-1.78-2.52-3.05-3.15-5.23-.32-1.1-2.84-2.17-4.18-3.5-6.07-6.02-12.66-10.94-21.84-10.47-.48.02-.98-.33-1.46-.31-3.38.17-7.13-.47-10.06.79-4.12,1.78-8.5,3.7-11.57,7.29-2.78,3.25-6.31,5.8-8.51,9.58-4.41,7.57-7.24,15.65-8.5,24.34-.58,4.03-.58,4.28,3.58,4.33,7.43.08,14.88-.35,22.29.59,2.08.26,4.17.47,6.25.75,2.97.4,2.81,3.37,4.13,5.13,1.92,2.57-.63,8.95-3.8,9.17-4.2.29-8.42,1.27-12.6.6-5.52-.89-11.04-.33-16.56-.51-3.11-.1-4.03,1.04-3.05,4.02,2.36,7.14,3.99,14.48,8.12,21.04,3.04,4.84,6.18,9.75,10.52,13.15,4.59,3.6,9.52,6.84,15.85,8.17,8.02,1.69,15.08.08,21.76-3.33,5.21-2.66,9.45-7.1,12.77-12.06,3.71-5.54,6.39-11.57,8.43-17.98,1.15-3.6.38-7.23,1.25-10.68,2.25-8.94.69-17.58-1.65-26.16-.48-1.76-1.09-3.42-.97-5.25.1-2.05.1-4.05-2.37-4.83l-.09.02Zm7.29,76.78c2.39.57,4.8-.03,7.18.11,2.24.14,3.33-1.06,4.09-2.83,2.13-4.99,4.62-9.83,6.37-14.99,5.2-15.28,7.01-30.89,4.88-46.95-1.71-12.94-6.88-24.5-13.42-35.61-1.34-2.27-2.79-3.26-5.51-3.09-2.28.15-4.56.7-6.91.26-1.56-.29-1.39.74-.69,1.63,1.17,1.5,2.51,2.89,3.6,4.44,8.12,11.61,12.94,24.47,14.42,38.57,2.09,19.97-1.3,38.67-12.78,55.51-.59.87-1.63,1.62-1.23,2.93-.08.02-.17.02-.23.07-.04.03-.03.12-.05.18.09-.08.19-.16.28-.24Zm418.43,10.32c1.15.05,2.02-.38,2.95-1.15,3.73-3.11,7.53-6.05,11-9.54,4.82-4.86,7.43-10.79,10.27-16.73,1.93-4.06,2.14-8.45,3.05-12.71.74-3.49.8-6.96.12-10.45-.88-4.54-1.56-9.06-2.92-13.57-2.07-6.88-5.15-13.01-9.7-18.35-5.11-6-10.95-11.23-18.39-14.39-6.06-2.57-12.08-4.98-18.88-4.79-3.72.11-7.33.54-10.99,1.17-4.53.78-8.77,2.4-12.56,4.66-6.02,3.6-11.08,8.48-15.51,13.99-2.58,3.22-4.47,6.97-5.85,10.59-1.52,3.97-3.23,8.15-3.08,12.83.12,3.59.42,4.56,3.82,3.48.48-.15.82-.46,1.34-.13,2.83,1.83,4.93-.28,5.55-2.16.95-2.89,2.56-5.22,4.03-7.74,2.9-4.95,7.45-8.12,11.99-11.09,4.01-2.62,8.8-3.43,13.69-4.13,8.26-1.19,15.8.98,22.51,4.73,5.06,2.83,9.11,7.84,12.05,13.11,1.05,1.89,2.51,3.8,2.78,6.17.58,5.21,1.99,10.34.05,15.62-1.25,3.39-1.6,7.03-3.91,10.13-1.94,2.6-3.78,5.28-5.92,7.73-3.05,3.49-1.78,8.2-3.48,12.09-.77,1.78-1.7,3.64-1.32,5.74-1.87,1.43-2.4,3.39-2.39,5.65,0,1.36,0,3.11,1.35,3.32,1.37.21,3.25.07,4.12-1.69.2,0,.41-.02.61-.02,1.83.16,3.06-.61,3.62-2.38Zm-148.96-192.44c-5.11,1.18-8.06.1-10.05-3.58-1.96-3.62-.73-6.85,1.27-9.9,11.58-17.64,27.06-30.93,45.69-40.66,4.65-2.43,4.85-4.02.61-7.41-1.09-.88-2.3-1.57-3.74-1.88-7.38-1.62-14.29.24-20.76,3.41-16.91,8.28-29.87,20.95-39.6,36.98-3.05,5.03-11.48,10.42-18.07,9.16-16.85-3.21-33.65-2.08-50.23,2.07-4.11,1.03-8.42,1.83-11.51,5.48-1.25,1.48-3.51,1.67-5.66,1.22-3.11-.64-5.15-2.69-6.97-4.98-9.03-11.32-19.25-21.41-31.35-29.39-8.93-5.89-18.66-9.9-29.71-9.44-4.39.18-6.8,1.99-8.44,6.06-.61,1.52-.3,2.04,1.27,2.54,23.96,7.53,41.31,23.43,55.06,43.79,3.73,5.53,2.16,13.31-6.78,13.72-3.57-.54-5.44-3.24-7.21-5.9-6.7-10.1-14.94-18.7-24.76-25.79-5.47-3.95-11.31-7.19-18.19-9.73.44,2.07.69,3.63,1.11,5.15,3.09,11.24,8.49,21.31,15.88,30.27,3.9,4.73,8.16,9.17,12.18,13.81,1.93,2.23,3.19,5.09,6.48,5.94,1.15.3,1.77,1.58,2.37,2.64,1.01,3.03.52,5.96-.7,8.8-1.08,2.49-2.29,4.93-3.37,7.42-5.15,11.95-7.95,24.5-8.91,37.4-.99,13.21-.42,26.36,3.66,39.15,4.64,14.58,12.77,26.78,24.51,36.63,3.54,2.97,4.11,8.02,1.69,11.11-2.28,2.89-7.47,3.6-11.04,1.21-2.41-1.61-4.55-3.63-6.75-5.54-.91-.8-1.63-1.2-2.92-.59-15.43,7.28-29.43,16.53-41.08,29.17-2.35,2.55-3.02,5.09-2.49,8.46,1.16,7.24,2.23,14.53,2.18,21.89-.03,4.86-3.35,8.36-7.67,8.44-4.4.08-7.61-3.18-8.09-8.07-.51-5.2-1.09-10.39-1.66-15.59-2.06-18.76-6.04-37.08-12.31-54.9-1.81-5.15-1.64-10.15,1.52-15,3.76-5.77,3.84-12.2,1.95-18.62-.99-3.36-3.21-5.98-6.21-7.92-1.62-1.05-2.14-.68-1.97,1.16.22,2.4.46,4.81.58,7.22.74,14.86-1.41,29.35-6.26,43.35-3.22,9.31-6.48,18.89-12.86,26.48-3.08,3.66-3.27,7.03-3.18,11,.06,2.51.28,5.02.5,7.53.93,10.61,3.21,20.88,8.13,30.41,9.15,17.7,26.14,24.12,44.56,16.91,15.21-5.95,26.71-16.57,36.69-29.09,3.33-4.17,6.31-8.6,9.29-13.03,3.14-4.67,8.15-5.5,12.24-2.28,3.07,2.42,3.55,7.28.81,11.52-11.96,18.51-26.26,34.73-46.28,44.83-15.51,7.83-31.54,10.04-47.9,2.36-1.5-.7-2.13-.23-2.94.87-2.92,3.98-6.12,7.72-9.55,11.27-9.87,10.19-19.75,20.37-29.53,30.66-7.06,7.42-12.57,15.9-16.93,25.19-4.58,9.77-7.17,20.02-8.44,30.7-1.61,13.6-.04,26.66,5.73,39.16,1.95,4.22,4.52,8.08,6.7,12.16,2.52,4.71,1.35,8.85-3.11,11.63-.76.47-1.51,1-2.16,1.62-12.96,12.1-27.81,21.29-44.14,27.98-21.05,8.62-42.45,16.36-64.17,23.14-1.65.52-3.3,1.07-5.29,1.71,1.81,1.45,3.48,1.43,4.98,1.87,14.39,4.23,29.17,6.03,44.09,6,9.64-.02,19.29-.52,28.93-1.4,15.04-1.38,29.99-3.26,44.68-6.76,14.15-3.37,27.87-7.85,40.19-15.94,4.19-2.75,7.56-2.17,11.16,1.3.97.94,2.09,1.56,3.3,2.07,13.37,5.64,27.36,7.97,41.82,7.87,1.67-.01,1.55-1.04,1.69-1.88.74-4.67,1.34-9.35,2.04-14.02,1.21-8.15,2.34-16.31,3.73-24.43.84-4.9,4.42-7.51,8.98-7.06,4.1.41,6.67,3.73,6.65,8.59,0,1.01,0,2.03-.14,3.02-3.52,23.76-7.53,47.44-8.93,71.48-.49,8.36-.05,9.72,7.47,13.59.63.32,1.27.62,1.9.92,10.63,5.15,21.89,8.5,33.1,12.13,21.24,6.88,42.93,8.48,64.99,7.54.7-.03,1.39-.26,2.09-.26,2.29.01,2.61-1.31,2.34-3.19-.48-3.33-1.51-6.46-3.32-9.31-5.68-8.91-14.43-13.51-23.98-16.85-12.2-4.27-24.87-5.63-37.73-5.45-1.93.03-3.83-.13-5.67-.68-5.28-1.59-7.06-7.05-4.02-11.62,2.25-3.39,5.74-3.72,9.09-3.66,3.6.07,4.37-1.83,5.19-4.71,3.64-12.76,5.15-25.85,5.74-39.01.86-19.26-.88-38.26-8.87-56.15-8.4-18.8-21.8-31.99-42.57-36.26-8.52-1.75-17.23-1.39-25.89-1.38-2.13,0-4.23-.04-6.17-1.13-2.89-1.63-3.66-4.75-1.73-7.45.94-1.32,2.13-2.37,3.66-3.06,8.49-3.85,17.35-4.6,26.54-3.68,19.89,2.01,36.05,10.96,48.56,26.29,14.91,18.26,20.8,39.95,22.19,62.97.89,14.67.29,29.38-1.99,43.95-.25,1.58-.06,2.25,1.81,1.9,3.36-.62,6.81-.75,10.13-1.51,11.49-2.63,22.06-7.45,32.16-13.49,12.81-7.65,24.36-16.74,34.06-28.13,1.27-1.49,1.62-2.13-.8-2.52-2.47-.39-4.9-1.15-7.26-2-21.63-7.83-35.23-23.63-43.69-44.4-3.95-9.68-5.83-19.86-6.51-30.25-.42-6.34.22-12.65.94-18.96.78-6.8,9.28-12.79,16.76-10.48,11.41,3.53,23.27,4.41,35.18,4.65,7.87.15,15.7-.27,23.49-1.29,7.69-1.01,15.27-2.54,22.39-5.83,1.61-.74,2.49-1.71,2.71-3.58,2.12-17.91,2.98-35.89,3-53.92.03-16.22-1.07-32.42-.65-48.64.08-3.14.25-6.26,1.47-9.19,1.28-3.1,4.58-5.27,7.61-5,3.39.31,5.38,2.46,6.61,5.45.66,1.62.78,3.35.6,5.06-1.09,10.27.07,20.52.05,30.78,0,1.17-.27,2.46,1.27,3.05,3.07,1.16,4.86,3.81,7,6.07,5.77,6.09,12.51,9.57,21.21,8.26,6.3-.95,11.57-4.02,16.46-7.78,11.33-8.71,19.17-20.29,25.87-32.66,10.33-19.09,17.03-39.5,21.38-60.72,1.07-5.2,2.86-9.93,7.07-13.65,2.99-2.63,4.73-6.28,4.98-10.38.62-10.21-5.82-17.48-17.16-18.6-9.25-.91-18.02,5.23-20.35,14.1-1.23,4.7.38,8.93,1.8,13.23,1.38,4.2.8,7.95-1.89,11.66-8.83,12.14-16.76,24.86-23.93,38.06-2.15,3.95-3.53,7.43-1.31,11.96,1.51,3.08.93,6.58-2.1,9.01-4.58,3.68-10.33,1.89-12.91-4.1-1.79-4.16-3.41-8.39-5.48-12.43-7.42-14.45-17.43-27-28.27-38.97-1.1-1.22-1.8-.92-2.98-.04-7.99,5.93-16.8,10.29-26.2,13.5-11.89,4.05-24.15,5.97-36.66,6.8-12.01.79-23.93.27-35.81-1.41-5.5-.77-7.99-4.06-7.52-9.08.38-4.03,3.98-6.81,8.98-6.58,4.71.22,9.41.94,14.12,1.13,18.52.76,36.82-.37,54.39-7.08,19.36-7.4,34.04-19.74,41.44-39.57,5.99-16.06,5.71-32.53,2.37-49.08-3.61-17.94-10.63-34.57-19.5-50.48-1.32-2.36-2.26-4.99-5.57-5.31-.89-.08-1.45-1-2.01-1.74-2.11-2.82-1.84-5.81-.69-8.87,1.02-1.73,1.96-3.51,3.08-5.18,8.04-11.96,15.14-24.44,20.44-37.88.81-2.06,1.87-4.1,1.93-6.67-.62.27-1,.38-1.33.58-12.87,7.99-24.15,17.69-32.5,30.49-1.5,2.3-3.19,4.38-5.47,5.94Zm13.76,350.98c-6.72,1.79-12.97,3.29-19.36,4.08-20.15,2.5-40.2,1.96-60.09-2.27-1.64-.35-2.34-.13-2.44,1.76-1.09,20.17,3.54,38.66,16.65,54.39,9.15,10.96,20.66,17.81,35.4,18.21,1.8.05,2.85-.4,3.85-2.05,10.06-16.49,16.63-34.39,21.51-52.98,1.78-6.8,3.32-13.65,4.49-21.14Zm-19.52,94.15c-1.94,1.34-2.41,2.98-3.43,4.22-8.31,10.01-17.12,19.52-27.72,27.19-1.28.92-1.74,2.04-1.71,3.59.09,3.83-.08,7.66.08,11.48.36,8.8-1.47,6.96,7.71,9.68,15.56,4.62,31.5,7.15,47.73,8.16,15.14.94,30.13-.1,45.14-1.84,2.66-.31,2.37-1.27,1.46-3.04-2.91-5.67-7.49-9.65-12.89-12.76-10.66-6.15-22.37-8.19-34.48-8.45-7.88-.17-15.6,1.28-23.33,2.61-3.94.67-7.74-1.55-8.99-5-1.24-3.45-.19-7.57,3.34-9.02,3.81-1.57,4.49-4.27,4.81-7.65.14-1.49.61-2.95.77-4.45.5-4.74,1.59-9.43,1.5-14.71Zm172.32-355.17c16.58,14.77,25.36,32.71,25.87,54.2.51,21.5-7.3,39.77-24.05,54.86,4.48,0,8.14.04,11.8-.02.98-.02,1.56-.89,2.11-1.59,12.65-16.18,19.92-34.08,18.92-55.09-.71-14.96-5.21-28.61-12.27-41.54-2.97-5.45-5.49-11.89-13.9-10.45-2.51.43-5.06-.99-8.47-.37Zm-355.28,55.49c-5.43-.26-10.86-.53-16.29-.77-.79-.03-1.65-.24-2.35.29-1.27.95-3.48,8.66-2.94,10.27,2.64,7.92,5.14,15.89,6.88,24.07.5,2.35,1.06,2.55,2.88.9,8.89-8.09,18.69-14.94,29.24-20.7,2.29-1.25,5.87-1.99,6.55-3.82.81-2.18-2.41-4.47-3.42-6.96-.68-1.67-1.78-2.4-3.67-2.46-5.63-.16-11.26-.53-16.88-.81Zm256.13,48.34c1.27-2.16,2.13-4.01,3.34-5.59,2.81-3.68,4.06-7.22-.02-10.84-.35-.31-.5-.87-.73-1.31-3.34-6.49-5.8-13.28-6.97-20.49-.33-2.05-1.12-2.96-3.29-2.91-3.12.07-6.31.21-9.34-.34-4.27-.77-7.01.66-9.24,4.24-.93,1.49-1.09,2.2.15,3.5,3.06,3.2,6.03,6.49,8.87,9.88,6.21,7.4,11.93,15.17,17.23,23.87Zm16.45-40.1c-1,0-2.01.06-3.01-.01-1.93-.14-2.37,1.09-1.92,2.48.91,2.8,2.08,5.52,3.17,8.27.49,1.25,1.54,1.89,2.59,1.02,2.3-1.91,4.01-4.5,4.86-7.25.96-3.09-1.07-4.49-5.69-4.51Z" fill="#8d4847"/>
    <path d="m399.89,205.9c8.94-.41,10.52-8.19,6.78-13.72-13.75-20.36-31.1-36.27-55.06-43.79-1.57-.49-1.88-1.02-1.27-2.54,1.64-4.07,4.05-5.88,8.44-6.06,11.05-.46,20.77,3.55,29.71,9.44,12.1,7.98,22.32,18.07,31.35,29.39,1.82,2.29,3.86,4.33,6.97,4.98,2.15.45,4.41.25,5.66-1.22,3.09-3.64,7.4-4.45,11.51-5.48,16.58-4.15,33.37-5.28,50.23-2.07,6.59,1.26,15.02-4.13,18.07-9.16,9.72-16.02,22.69-28.7,39.6-36.98,6.46-3.17,13.38-5.03,20.76-3.41,1.43.31,2.64,1.01,3.74,1.88,4.24,3.4,4.03,4.99-.61,7.41-18.62,9.73-34.11,23.02-45.69,40.66-2,3.05-3.23,6.27-1.27,9.9,1.99,3.68,4.94,4.76,10.05,3.58,3.13,4.02,7.55,6.69,10.91,10.49.77.87,1.3,2.39,2.95,2.22-1.15,3.06-1.42,6.05.69,8.87.55.74,1.12,1.65,2.01,1.74,3.31.32,4.25,2.94,5.57,5.31,8.87,15.91,15.89,32.54,19.5,50.48,3.33,16.55,3.62,33.02-2.37,49.08-7.4,19.83-22.08,32.17-41.44,39.57-17.57,6.72-35.86,7.84-54.39,7.08-4.71-.19-9.41-.91-14.12-1.13-5.01-.23-8.6,2.55-8.98,6.58-.47,5.02,2.02,8.31,7.52,9.08,11.88,1.67,23.8,2.2,35.81,1.41,12.51-.83,24.77-2.75,36.66-6.8,9.4-3.21,18.21-7.57,26.2-13.5,1.18-.88,1.88-1.17,2.98.04,10.84,11.96,20.85,24.52,28.27,38.97,2.07,4.04,3.69,8.27,5.48,12.43,2.58,5.99,8.34,7.78,12.91,4.1,3.03-2.43,3.61-5.93,2.1-9.01-2.22-4.53-.84-8.02,1.31-11.96,7.17-13.2,15.1-25.92,23.93-38.06,2.7-3.71,3.28-7.46,1.89-11.66-1.42-4.3-3.03-8.53-1.8-13.23,2.33-8.87,11.1-15.01,20.35-14.1,11.33,1.12,17.78,8.39,17.16,18.6-.25,4.1-1.99,7.75-4.98,10.38-4.21,3.71-6,8.45-7.07,13.65-4.35,21.22-11.05,41.63-21.38,60.72-6.69,12.37-14.53,23.95-25.87,32.66-4.89,3.76-10.16,6.83-16.46,7.78-8.71,1.31-15.45-2.17-21.21-8.26-2.14-2.26-3.93-4.91-7-6.07-1.55-.59-1.28-1.88-1.27-3.05.02-10.26-1.14-20.52-.05-30.78.18-1.71.07-3.44-.6-5.06-1.22-2.99-3.22-5.14-6.61-5.45-3.03-.27-6.33,1.9-7.61,5-1.21,2.93-1.38,6.05-1.47,9.19-.42,16.22.67,32.43.65,48.64-.03,18.03-.88,36.01-3,53.92-.22,1.87-1.1,2.84-2.71,3.58-7.12,3.29-14.7,4.82-22.39,5.83-7.79,1.02-15.62,1.44-23.49,1.29-11.91-.23-23.77-1.11-35.18-4.65-7.48-2.32-15.98,3.68-16.76,10.48-.72,6.31-1.36,12.63-.94,18.96.69,10.39,2.57,20.57,6.51,30.25,8.47,20.77,22.06,36.57,43.69,44.4,2.36.85,4.79,1.6,7.26,2,2.42.39,2.07,1.03.8,2.52-9.7,11.39-21.25,20.48-34.06,28.13-10.1,6.04-20.67,10.86-32.16,13.49-3.32.76-6.78.89-10.13,1.51-1.87.34-2.06-.32-1.81-1.9,2.28-14.58,2.88-29.28,1.99-43.95-1.39-23.02-7.28-44.71-22.19-62.97-12.52-15.33-28.68-24.28-48.56-26.29-9.19-.93-18.05-.17-26.54,3.68-1.53.69-2.72,1.75-3.66,3.06-1.93,2.7-1.16,5.82,1.73,7.45,1.93,1.09,4.04,1.14,6.17,1.13,8.66,0,17.37-.37,25.89,1.38,20.76,4.27,34.16,17.45,42.57,36.26,7.99,17.89,9.74,36.89,8.87,56.15-.59,13.15-2.1,26.24-5.74,39.01-.82,2.89-1.59,4.78-5.19,4.71-3.35-.06-6.84.27-9.09,3.66-3.04,4.57-1.26,10.04,4.02,11.62,1.84.55,3.73.71,5.67.68,12.86-.18,25.53,1.18,37.73,5.45,9.55,3.34,18.31,7.94,23.98,16.85,1.81,2.84,2.85,5.97,3.32,9.31.27,1.88-.05,3.21-2.34,3.19-.7,0-1.39.23-2.09.26-22.06.94-43.76-.66-64.99-7.54-11.21-3.63-22.47-6.98-33.1-12.13-.63-.31-1.28-.6-1.9-.92-7.52-3.87-7.96-5.23-7.47-13.59,1.4-24.03,5.41-47.72,8.93-71.48.15-.99.14-2.01.14-3.02.03-4.86-2.55-8.19-6.65-8.59-4.56-.46-8.15,2.16-8.98,7.06-1.39,8.12-2.52,16.28-3.73,24.43-.69,4.67-1.3,9.36-2.04,14.02-.13.84-.02,1.87-1.69,1.88-14.46.1-28.45-2.23-41.82-7.87-1.21-.51-2.32-1.13-3.3-2.07-3.6-3.47-6.97-4.06-11.16-1.3-12.32,8.09-26.04,12.57-40.19,15.94-14.7,3.5-29.64,5.38-44.68,6.76-9.64.88-19.29,1.39-28.93,1.4-14.93.02-29.7-1.77-44.09-6-1.5-.44-3.17-.43-4.98-1.87,1.99-.65,3.64-1.19,5.29-1.71,21.72-6.79,43.12-14.52,64.17-23.14,16.33-6.69,31.18-15.89,44.14-27.98.65-.61,1.4-1.14,2.16-1.62,4.47-2.78,5.64-6.92,3.11-11.63-2.18-4.08-4.75-7.94-6.7-12.16-5.77-12.5-7.34-25.56-5.73-39.16,1.27-10.68,3.86-20.93,8.44-30.7,4.35-9.29,9.87-17.76,16.93-25.19,9.77-10.28,19.65-20.47,29.53-30.66,3.44-3.55,6.63-7.3,9.55-11.27.81-1.1,1.44-1.57,2.94-.87,16.36,7.69,32.39,5.47,47.9-2.36,20.02-10.1,34.32-26.32,46.28-44.83,2.74-4.25,2.26-9.11-.81-11.52-4.09-3.22-9.1-2.39-12.24,2.28-2.98,4.43-5.96,8.85-9.29,13.03-9.98,12.52-21.48,23.14-36.69,29.09-18.43,7.21-35.41.8-44.56-16.91-4.93-9.54-7.2-19.8-8.13-30.41-.22-2.51-.44-5.02-.5-7.53-.09-3.97.1-7.34,3.18-11,6.38-7.59,9.63-17.17,12.86-26.48,4.85-14,7-28.5,6.26-43.35-.12-2.41-.36-4.81-.58-7.22-.17-1.85.36-2.21,1.97-1.16,3,1.94,5.22,4.56,6.21,7.92,1.89,6.42,1.81,12.84-1.95,18.62-3.16,4.85-3.33,9.86-1.52,15,6.27,17.82,10.25,36.14,12.31,54.9.57,5.19,1.16,10.39,1.66,15.59.48,4.89,3.69,8.15,8.09,8.07,4.32-.08,7.64-3.58,7.67-8.44.05-7.36-1.02-14.64-2.18-21.89-.54-3.37.14-5.92,2.49-8.46,11.65-12.64,25.64-21.89,41.08-29.17,1.28-.6,2-.2,2.92.59,2.19,1.91,4.34,3.93,6.75,5.54,3.57,2.39,8.77,1.68,11.04-1.21,2.43-3.08,1.85-8.14-1.69-11.11-11.74-9.85-19.86-22.05-24.51-36.63-4.07-12.79-4.65-25.94-3.66-39.15.96-12.9,3.76-25.46,8.91-37.4,1.08-2.49,2.29-4.93,3.37-7.42,1.23-2.84,1.72-5.77.71-8.8,2.49-1.07,2.69-3.84,4.18-5.67,2.81-3.45,5.32-7.14,7.96-10.72Zm125,71.2c-8.19,0-12.9.8-18.12,3.03-7.19,3.07-9.6,10.04-5.92,16.9,3.24,6.03,8.57,9.5,14.66,11.95,3.9,1.57,4.08,1.64,2.47,5.47-.23.56-.5,1.1-.75,1.65-2.58,5.74-4.29,5.93-7.92.99-1.15-1.56-2.45-3.09-4.76-2.17-2.37.94-3.04,2.98-2.72,5.17.7,4.77,2.97,8.54,7.77,10.26,4.29,1.54,8.18.56,11.49-2.37,1.32-1.17,2.09-1.29,3.49-.14,3.71,3.06,7.97,3.5,12.12,1.2,4.55-2.53,7.93-6.2,8.49-11.72.18-1.78-.16-3.54-2.07-4.29-1.93-.77-3.76-.48-5.22,1.16-1.47,1.65-2.93,3.31-4.44,4.93-.88.95-1.88,1.61-3.09.43-2.67-2.6-1.85-9.35,1.34-11.19,4.48-2.59,8.57-5.62,11.7-9.84,5.89-7.95,3.26-16.49-6.15-19.62-4.14-1.38-8.41-1.97-12.35-1.8Zm-47.76-1.82c4.1-.26,7.67-1.53,10.63-4.15,2.06-1.83,3.13-4.27,2.3-7.03-1.99-6.55-6.15-11.25-12.58-13.74-5.32-2.06-11.51,0-14.59,4.72-3.23,4.96-2.61,10.58,1.58,14.84,3.53,3.59,8.04,4.76,12.67,5.36Zm83.8-27.14c-5.94.1-12.56,5.58-15.12,13-1.39,4.04.26,7.46,4.1,9.54,5.97,3.23,11.71,2.14,17.17-1.12,4.44-2.64,6.84-8.55,5.56-12.71-1.66-5.37-6.14-8.7-11.71-8.71Z" fill="#f0b278"/>
    <path d="m264.54,298.86c-.12,1.84.49,3.5.97,5.25,2.33,8.58,3.89,17.22,1.65,26.16-.87,3.44-.1,7.07-1.25,10.68-2.04,6.41-4.72,12.44-8.43,17.98-3.32,4.96-7.56,9.4-12.77,12.06-6.68,3.41-13.74,5.01-21.76,3.33-6.33-1.33-11.26-4.58-15.85-8.17-4.34-3.4-7.47-8.31-10.52-13.15-4.12-6.56-5.76-13.9-8.12-21.04-.99-2.99-.06-4.12,3.05-4.02,5.52.17,11.04-.38,16.56.51,4.19.68,8.41-.31,12.6-.6,3.17-.22,5.72-6.6,3.8-9.17-1.32-1.76-1.16-4.73-4.13-5.13-2.08-.28-4.17-.49-6.25-.75-7.41-.94-14.85-.5-22.29-.59-4.16-.05-4.17-.3-3.58-4.33,1.26-8.69,4.09-16.77,8.5-24.34,2.2-3.78,5.73-6.33,8.51-9.58,3.07-3.59,7.45-5.51,11.57-7.29,2.92-1.26,6.67-.63,10.06-.79.48-.02.98.33,1.46.31,9.18-.47,15.77,4.46,21.84,10.47,1.34,1.33,3.86,2.39,4.18,3.5.63,2.17,2.21,3.45,3.15,5.23.69,1.31,1.47,2.57,2.21,3.86.41,1.8.75,3.64,2.39,4.83,0,0,.09-.02.09-.02-.12,2.06-.22,4.11,2.37,4.83Z" fill="#c94344"/>
    <path d="m683.76,382c-1.4.39-2.85.63-4.22.22.98-4.33,1.93-8.66,2.85-13,.45-2.12.92-4.23,1.33-6.36.34-1.75.32-2.98,1.57-4.41,2.14-2.45,3.98-5.13,5.92-7.73,2.31-3.1,2.66-6.74,3.91-10.13,1.94-5.28.53-10.41-.05-15.62-.26-2.38-1.72-4.29-2.78-6.17-2.94-5.26-6.99-10.28-12.05-13.11-6.71-3.75-14.25-5.92-22.51-4.73-4.89.7-9.67,1.51-13.69,4.13-4.54,2.97-9.1,6.15-11.99,11.09-1.48,2.53-3.08,4.85-4.03,7.74-.73,2.21-2.63,3.43-4.88,3.22-1.01-.1-2.02-.23-3.03-.4-.6-.1-1.58-.09-2.07-.46-.86-.66-.7-2.62-.73-3.55-.15-4.68,1.56-8.85,3.08-12.83,1.38-3.62,3.27-7.38,5.85-10.59,4.43-5.52,9.48-10.4,15.51-13.99,3.79-2.27,8.03-3.88,12.56-4.66,3.66-.63,7.27-1.07,10.99-1.17,6.8-.19,12.82,2.21,18.88,4.79,7.44,3.16,13.28,8.39,18.39,14.39,4.55,5.34,7.63,11.47,9.7,18.35,1.36,4.51,2.04,9.03,2.92,13.57.68,3.49.62,6.96-.12,10.45-.91,4.26-1.11,8.66-3.05,12.71-2.83,5.95-5.45,11.88-10.27,16.73-2.45,2.47-5.11,4.7-7.79,6.91-1.24,1.02-2.3,2.1-3.79,2.66-1.7.63-3.49,1.08-5.22,1.62-.39.12-.78.24-1.18.35Z" fill="#c84344"/>
    <path d="m533.08,633.85c.1,5.28-.99,9.97-1.5,14.71-.16,1.49-.62,2.95-.77,4.45-.32,3.37-1.01,6.08-4.81,7.65-3.53,1.46-4.58,5.58-3.34,9.02,1.24,3.46,5.05,5.68,8.99,5,7.73-1.32,15.45-2.78,23.33-2.61,12.1.26,23.82,2.3,34.48,8.45,5.39,3.11,9.98,7.09,12.89,12.76.91,1.77,1.2,2.73-1.46,3.04-15.01,1.73-30,2.78-45.14,1.84-16.23-1.01-32.16-3.54-47.73-8.16-9.18-2.72-7.35-.88-7.71-9.68-.15-3.82.01-7.65-.08-11.48-.04-1.56.43-2.67,1.71-3.59,10.6-7.67,19.41-17.18,27.72-27.19,1.02-1.23,1.49-2.88,3.43-4.22Z" fill="#efb178"/>
    <path d="m705.4,278.68c3.41-.63,5.96.8,8.47.37,8.4-1.44,10.93,5,13.9,10.45,7.06,12.93,11.56,26.58,12.27,41.54,1,21.01-6.27,38.91-18.92,55.09-.55.7-1.13,1.58-2.11,1.59-3.66.06-7.32.02-11.8.02,16.75-15.1,24.56-33.37,24.05-54.86-.51-21.49-9.29-39.43-25.87-54.2Z" fill="#f88d8e"/>
    <path d="m269.37,370.83c-.4-1.31.64-2.06,1.23-2.93,11.48-16.85,14.87-35.55,12.78-55.51-1.48-14.1-6.3-26.96-14.42-38.57-1.09-1.56-2.43-2.94-3.6-4.44-.7-.89-.87-1.93.69-1.63,2.35.44,4.63-.11,6.91-.26,2.72-.18,4.17.82,5.51,3.09,6.55,11.1,11.71,22.67,13.42,35.61,2.12,16.06.32,31.67-4.88,46.95-1.76,5.16-4.24,9.99-6.37,14.99-.76,1.78-1.85,2.97-4.09,2.83-2.38-.14-4.79.46-7.18-.11h0Z" fill="#f88d8d"/>
    <path d="m622.7,342.42c4.62.02,6.65,1.41,5.69,4.5-.85,2.74-2.56,5.33-4.86,7.25-1.05.87-2.1.23-2.59-1.02-1.09-2.74-2.26-5.46-3.17-8.27-.45-1.39,0-2.61,1.92-2.48,1,.07,2.01.01,3.01.01Z" fill="#c84344"/>
    <path d="m680.49,376.28c-.04.98.14,2.04-.16,2.94-1.44,4.33-1.48,4.31,3.23,4.34-.87,1.76-2.75,1.9-4.12,1.69-1.35-.21-1.34-1.96-1.35-3.32,0-2.25.52-4.22,2.39-5.65Z" fill="#8d4844"/>
    <path d="m264.54,298.86c-2.6-.72-2.5-2.77-2.37-4.83,2.48.78,2.47,2.78,2.37,4.83Z" fill="#8d4844"/>
    <path d="m262.08,294.05c-1.64-1.19-1.98-3.03-2.39-4.83,4.16-.06,1.71,3.16,2.39,4.83Z" fill="#c84344"/>
    <path d="m269.37,370.84c-.09.08-.19.16-.28.24.01-.06,0-.15.05-.18.06-.04.15-.05.23-.07h0Z" fill="#f88d8d"/>
    <path d="m524.89,277.1c3.94-.17,8.21.42,12.35,1.8,9.41,3.13,12.04,11.67,6.15,19.62-3.13,4.22-7.22,7.25-11.7,9.84-3.19,1.84-4.01,8.59-1.34,11.19,1.21,1.18,2.21.52,3.09-.43,1.51-1.62,2.96-3.28,4.44-4.93,1.46-1.64,3.29-1.93,5.22-1.16,1.9.76,2.25,2.52,2.07,4.29-.56,5.52-3.94,9.19-8.49,11.72-4.15,2.31-8.41,1.86-12.12-1.2-1.4-1.15-2.16-1.03-3.49.14-3.32,2.93-7.2,3.92-11.49,2.37-4.8-1.73-7.07-5.49-7.77-10.26-.32-2.19.35-4.23,2.72-5.17,2.31-.91,3.62.61,4.76,2.17,3.63,4.94,5.34,4.75,7.92-.99.25-.55.52-1.09.75-1.65,1.61-3.83,1.43-3.9-2.47-5.47-6.09-2.45-11.42-5.92-14.66-11.95-3.69-6.87-1.28-13.83,5.92-16.9,5.22-2.23,9.93-3.04,18.12-3.03Z" fill="#8d4845"/>
    <path d="m477.13,275.28c-4.63-.6-9.14-1.77-12.67-5.36-4.19-4.26-4.81-9.88-1.58-14.84,3.07-4.72,9.26-6.78,14.59-4.72,6.43,2.49,10.59,7.19,12.58,13.74.84,2.76-.24,5.2-2.3,7.03-2.95,2.62-6.53,3.89-10.63,4.15Z" fill="#8d4844"/>
    <path d="m560.93,248.15c5.58.01,10.06,3.34,11.71,8.71,1.28,4.16-1.13,10.07-5.56,12.71-5.46,3.25-11.21,4.35-17.17,1.12-3.84-2.08-5.5-5.49-4.1-9.54,2.56-7.43,9.18-12.9,15.12-13Z" fill="#8d4845"/>
  </g>
  <path d="m251.39,277.62s9.33,11.08,14.5,27.67l2-15.25-11.17-18.75-5.33,6.33Z" fill="#8d4847"/>
</svg>