<svg width="12" height="20" viewBox="0 0 12 20" fill="none" xmlns="http://www.w3.org/2000/svg">
<path d="M0.650391 19.3881C0.400391 19.1381 0.275391 18.8421 0.275391 18.5001C0.275391 18.1581 0.400391 17.8624 0.650391 17.6131L7.97539 10.2881L0.625391 2.93809C0.392057 2.70475 0.275391 2.41309 0.275391 2.06309C0.275391 1.71309 0.400391 1.41309 0.650391 1.16309C0.900391 0.913086 1.19639 0.788086 1.53839 0.788086C1.88039 0.788086 2.17606 0.913086 2.42539 1.16309L10.8254 9.58809C10.9254 9.68809 10.9964 9.79642 11.0384 9.91309C11.0804 10.0298 11.1011 10.1548 11.1004 10.2881C11.1004 10.4214 11.0794 10.5464 11.0374 10.6631C10.9954 10.7798 10.9247 10.8881 10.8254 10.9881L2.40039 19.4131C2.16706 19.6464 1.87939 19.7631 1.53739 19.7631C1.19539 19.7631 0.899724 19.6381 0.650391 19.3881Z" fill="white"/>
</svg>
