<?xml version="1.0" encoding="UTF-8"?>
<svg id="_圖層_1" data-name="圖層 1" xmlns="http://www.w3.org/2000/svg" viewBox="0 0 1765.63 850.39">
  <g>
    <path d="m936.73,383.49c2.02,2.02,3.03,4.47,3.03,7.34s-1.01,5.32-3.03,7.34-4.54,3.03-7.54,3.03h-51.48c-.26,0-.46.17-.59.49-.13.33-.07.62.2.88,11.74,9.13,30.14,14.75,55.19,16.83,2.61.26,4.43,1.63,5.48,4.11.52,1.04.78,2.02.78,2.94,0,1.3-.46,2.61-1.37,3.91-2.09,3.39-4.76,5.94-8.02,7.63-2.61,1.43-5.28,2.15-8.02,2.15-.78,0-1.63-.07-2.54-.2-16.18-2.35-29.65-6.3-40.42-11.84-10.76-5.54-19.67-13.21-26.72-23-.26-.39-.62-.59-1.08-.59s-.82.2-1.08.59c-5.22,8.88-13.34,16.12-24.37,21.73-11.03,5.61-26.52,10.05-46.48,13.31h-2.15c-2.48,0-4.83-.65-7.05-1.96-3-1.83-5.35-4.31-7.05-7.44-.65-1.31-.98-2.54-.98-3.72s.26-2.35.78-3.52c1.17-2.48,3.06-3.85,5.68-4.11,26.88-3.26,44.82-8.87,53.82-16.83.26-.26.32-.55.2-.88-.13-.32-.33-.49-.59-.49h-49.91c-2.87,0-5.35-1.01-7.44-3.03-2.09-2.02-3.13-4.47-3.13-7.34s1.04-5.32,3.13-7.34c2.09-2.02,4.57-3.03,7.44-3.03h60.87c1.3,0,2.08-.65,2.35-1.96.52-2.35.91-4.7,1.17-7.05.13-.52,0-.98-.39-1.37-.39-.39-.85-.59-1.37-.59h-35.23c-4.7,0-8.71-1.63-12.04-4.89-3.33-3.26-4.99-7.31-4.99-12.13v-34.64c0-4.7,1.66-8.71,4.99-12.04,3.33-3.33,7.34-4.99,12.04-4.99h103.54c4.7,0,8.71,1.66,12.04,4.99,3.33,3.33,4.99,7.34,4.99,12.04v34.64c0,4.83-1.66,8.88-4.99,12.13-3.33,3.26-7.34,4.89-12.04,4.89h-40.91c-1.31,0-2.03.65-2.15,1.96-.26,2.74-.52,5.09-.78,7.05-.13.52-.03.98.29,1.37.32.39.75.59,1.27.59h69.09c3,0,5.51,1.01,7.54,3.03Zm-124.19-85.63c-2.87,0-5.35-1.04-7.44-3.13-2.09-2.09-3.13-4.57-3.13-7.44,0-.91-.39-1.37-1.17-1.37h-27.99c-2.87,0-5.35-1.01-7.44-3.03-2.09-2.02-3.13-4.5-3.13-7.44s1.04-5.41,3.13-7.44c2.09-2.02,4.57-3.03,7.44-3.03h28.18c.65,0,.98-.39.98-1.17,0-2.48.91-4.63,2.74-6.46,1.83-1.83,4.04-2.74,6.66-2.74h4.5c2.61,0,4.83.92,6.66,2.74,1.83,1.83,2.74,3.98,2.74,6.46,0,.78.39,1.17,1.17,1.17h47.95c.65,0,.98-.39.98-1.17,0-2.48.91-4.63,2.74-6.46,1.83-1.83,4.04-2.74,6.66-2.74h4.5c2.61,0,4.83.92,6.65,2.74,1.83,1.83,2.74,3.98,2.74,6.46,0,.78.32,1.17.98,1.17h28.38c2.87,0,5.35,1.01,7.44,3.03,2.09,2.02,3.13,4.5,3.13,7.44s-1.05,5.42-3.13,7.44c-2.09,2.02-4.57,3.03-7.44,3.03h-28.18c-.78,0-1.17.46-1.17,1.37,0,2.87-1.05,5.35-3.13,7.44s-4.57,3.13-7.44,3.13h-2.15c-2.87,0-5.35-1.04-7.44-3.13-2.09-2.09-3.13-4.57-3.13-7.44,0-.91-.39-1.37-1.17-1.37h-47.76c-.78,0-1.17.46-1.17,1.37,0,2.87-1.05,5.35-3.13,7.44-2.09,2.09-4.57,3.13-7.44,3.13h-2.15Zm-6.26,19.77c-1.31,0-1.96.65-1.96,1.96v5.68c0,1.31.65,1.96,1.96,1.96h87.49c1.3,0,1.96-.65,1.96-1.96v-5.68c0-1.3-.65-1.96-1.96-1.96h-87.49Zm0,25.25c-1.31,0-1.96.65-1.96,1.96v6.07c0,1.31.65,1.96,1.96,1.96h87.49c1.3,0,1.96-.65,1.96-1.96v-6.07c0-1.3-.65-1.96-1.96-1.96h-87.49Z" fill="#8c4948"/>
    <path d="m1154.65,297.27c3.91,2.35,5.87,5.81,5.87,10.37,0,3.91-1.57,7.18-4.7,9.79l-1.96,1.57c-1.05.91-1.57,2.02-1.57,3.33v96.49c0,5.35-.65,9.43-1.96,12.23-1.31,2.8-3.59,5.05-6.85,6.75-4.31,2.09-11.09,3.26-20.36,3.52h-.39c-2.74,0-5.22-.85-7.44-2.54-2.48-1.83-4.24-4.24-5.29-7.24-.26-.78-.39-1.57-.39-2.35,0-1.31.39-2.61,1.17-3.92,1.3-1.96,3.13-2.94,5.48-2.94h9.59c1.43,0,2.45-.26,3.03-.78.59-.52.88-1.5.88-2.94v-90.82c0-1.3-.65-1.96-1.96-1.96h-40.71c-1.31,0-1.96.65-1.96,1.96v83.38c0,.39.2.65.59.78.39.13.72.07.98-.2,4.17-4.04,7.96-8.54,11.35-13.5.52-.78.39-1.43-.39-1.96-1.83-1.04-3.33-1.89-4.5-2.54-1.57-.91-2.58-2.25-3.03-4.01-.46-1.76-.17-3.43.88-4.99,1.3-1.57,2.94-2.58,4.89-3.03,1.96-.46,3.78-.23,5.48.69.91.52,2.02,1.11,3.33,1.76.78.39,1.37.26,1.76-.39.52-1.17.98-2.28,1.37-3.33.91-1.96,2.28-3.43,4.11-4.4,1.83-.98,3.78-1.27,5.87-.88,1.83.39,3.2,1.44,4.11,3.13.91,1.7.98,3.46.2,5.28-1.17,2.61-2.35,5.16-3.52,7.63-.39.78-.2,1.44.59,1.96,1.43.91,2.67,1.76,3.72,2.54,1.69,1.17,2.71,2.84,3.03,4.99.32,2.15-.1,4.08-1.27,5.77-1.05,1.57-2.58,2.51-4.6,2.84-2.02.33-3.82-.16-5.38-1.47-.92-.65-1.89-1.37-2.94-2.15-.78-.39-1.37-.26-1.76.39-1.83,2.61-3.65,5.09-5.48,7.44-2.09,2.61-4.96,4.05-8.61,4.31-.39.13-.78.2-1.17.2-3,0-5.81-.91-8.42-2.74-.26-.13-.52-.13-.78,0-.26.13-.39.33-.39.59v12.72c0,3-1.08,5.61-3.23,7.83-2.15,2.22-4.79,3.33-7.93,3.33s-5.77-1.11-7.93-3.33c-2.15-2.22-3.23-4.83-3.23-7.83v-100.8c0-1.3-.65-1.96-1.96-1.96h-38.95c-1.31,0-1.96.65-1.96,1.96v84.75c0,.39.2.65.59.78.39.13.71.07.98-.2,4.04-4.17,7.63-8.74,10.76-13.7.52-.78.39-1.43-.39-1.96-1.31-1.04-2.74-2.05-4.31-3.03-1.57-.98-2.51-2.38-2.84-4.21-.33-1.83.1-3.46,1.27-4.89,1.17-1.57,2.71-2.51,4.6-2.84,1.89-.32,3.69-.03,5.38.88,1.04.65,2.02,1.31,2.94,1.96.65.39,1.17.26,1.57-.39.65-1.43,1.3-2.94,1.96-4.5.78-1.96,2.09-3.43,3.91-4.4,1.83-.98,3.72-1.21,5.68-.68,1.83.39,3.23,1.47,4.21,3.23.98,1.76,1.08,3.49.29,5.19-1.31,3.39-2.68,6.53-4.11,9.39-.39.78-.2,1.5.59,2.15,1.17.91,2.35,1.83,3.52,2.74,1.57,1.31,2.48,3,2.74,5.09.26,2.09-.26,3.98-1.57,5.68-1.05,1.57-2.54,2.45-4.5,2.64-1.96.2-3.65-.36-5.09-1.66-.78-.65-1.63-1.3-2.54-1.96-.66-.52-1.17-.46-1.57.2-1.57,2.48-3.2,4.76-4.89,6.85-2.09,2.74-4.89,4.24-8.42,4.5-.39.13-.78.2-1.17.2-3.13,0-5.94-.91-8.42-2.74-.13-.13-.36-.13-.69,0-.33.13-.49.33-.49.59v13.11c0,3-1.08,5.58-3.23,7.73-2.15,2.15-4.73,3.23-7.73,3.23s-5.58-1.08-7.73-3.23c-2.15-2.15-3.23-4.73-3.23-7.73v-106.28c-.26.13-.52.13-.78,0-2.48-2.61-5.22-5.22-8.22-7.83-1.57-1.43-2.35-3.2-2.35-5.29v-1.17c.39-2.61,1.76-4.43,4.11-5.48,10.7-5.09,19.51-10.57,26.42-16.44.26-.26.32-.52.2-.78-.13-.26-.39-.39-.78-.39h-19.57c-3,0-5.55-1.04-7.63-3.13-2.09-2.09-3.13-4.6-3.13-7.54s1.04-5.45,3.13-7.54c2.09-2.09,4.63-3.13,7.63-3.13h155.6c3,0,5.54,1.05,7.63,3.13,2.09,2.09,3.13,4.6,3.13,7.54s-1.05,5.45-3.13,7.54-4.63,3.13-7.63,3.13h-15.07c-.26,0-.42.1-.49.29-.07.2.03.36.29.49,5.87,3,11.61,6.2,17.22,9.59Zm-99.23,52.65c1.57,1.31,2.54,3,2.94,5.09v.98c0,1.7-.52,3.2-1.57,4.5-1.05,1.7-2.54,2.61-4.5,2.74-1.96.13-3.72-.39-5.28-1.57-.66-.65-1.31-1.24-1.96-1.76-.65-.52-1.17-.46-1.57.2-2.09,3.13-4.24,6-6.46,8.61-1.17,1.57-2.81,2.48-4.89,2.74h-.98c-1.7,0-3.26-.52-4.7-1.57-1.7-1.17-2.54-2.87-2.54-5.09,0-1.57.52-2.94,1.57-4.11,2.35-2.61,4.5-5.41,6.46-8.42.52-.78.46-1.37-.2-1.76-1.31-.78-2.54-1.57-3.72-2.35-1.57-.91-2.51-2.22-2.84-3.91-.33-1.69.03-3.26,1.08-4.7,1.17-1.43,2.71-2.38,4.6-2.84,1.89-.46,3.68-.23,5.38.69.91.52,1.76,1.05,2.54,1.57.65.39,1.11.26,1.37-.39.65-1.3,1.3-2.54,1.96-3.72.78-1.83,2.09-3.26,3.91-4.31,1.17-.52,2.41-.78,3.72-.78.52,0,1.11.07,1.76.2,1.83.39,3.16,1.4,4.01,3.03.85,1.63.88,3.3.1,4.99-1.05,2.61-2.28,5.22-3.72,7.83-.39.78-.2,1.44.59,1.96,1.04.78,2.02,1.5,2.94,2.15Zm-27.6-44.43c-.26.13-.33.36-.2.68.13.33.32.49.59.49h32.69c1.3,0,1.96-.65,1.96-1.96v-15.85c0-1.3-.65-1.96-1.96-1.96h-23.68c-.13.13-.13.2,0,.2,1.83.65,2.97,1.93,3.43,3.82.46,1.89-.03,3.49-1.47,4.79-3.52,3.39-7.31,6.65-11.35,9.79Zm57.35-.78c0,1.31.65,1.96,1.96,1.96h40.91c.26,0,.42-.13.49-.39.06-.26-.03-.46-.29-.59-6.66-3.78-13.05-7.24-19.18-10.37-1.57-.78-2.45-2.05-2.64-3.82-.2-1.76.42-3.16,1.86-4.21l-.2-.39h-20.94c-1.31,0-1.96.65-1.96,1.96v15.85Zm36.4,46c1.83,1.44,2.74,3.4,2.74,5.87,0,1.7-.52,3.26-1.57,4.7-1.05,1.57-2.54,2.42-4.5,2.54-1.96.13-3.65-.39-5.09-1.57-.91-.78-1.83-1.57-2.74-2.35-.65-.52-1.17-.39-1.57.39-2.09,3-4.31,5.94-6.65,8.81-1.31,1.57-3,2.42-5.09,2.54h-.78c-1.7,0-3.26-.46-4.7-1.37-1.44-1.04-2.25-2.48-2.45-4.31-.2-1.83.29-3.39,1.47-4.7,2.35-2.61,4.63-5.61,6.85-9,.52-.78.39-1.43-.39-1.96-1.57-1.04-3.13-2.02-4.7-2.94-1.57-.91-2.51-2.18-2.84-3.82-.33-1.63.03-3.16,1.08-4.6,1.3-1.43,2.87-2.35,4.7-2.74,1.83-.39,3.59-.13,5.28.78,1.3.65,2.41,1.31,3.33,1.96.78.39,1.3.2,1.57-.59.52-1.04,1.04-2.15,1.57-3.33.91-1.83,2.28-3.2,4.11-4.11,1.17-.65,2.41-.98,3.72-.98.65,0,1.3.07,1.96.2,1.83.39,3.16,1.4,4.01,3.03.85,1.63.88,3.36.1,5.19-1.17,2.74-2.42,5.28-3.72,7.63-.39.78-.2,1.44.59,1.96,1.17.78,2.41,1.7,3.72,2.74Z" fill="#8c4948"/>
    <path d="m1280.86,325.06c5.74,0,9.91.26,12.53.78,1.83.26,3.29,1.11,4.4,2.54,1.11,1.44,1.6,3.07,1.47,4.89-2.22,26.1-6.66,47.82-13.31,65.18-.52,1.17-.33,2.22.59,3.13,6.26,5.87,13.6,9.98,22.02,12.33,8.42,2.35,18.43,3.59,30.04,3.72,19.7,0,34.64-.06,44.82-.2h.2c2.48,0,4.43,1.11,5.87,3.33.91,1.31,1.37,2.74,1.37,4.31,0,.78-.2,1.69-.59,2.74-1.05,3.13-2.87,5.74-5.48,7.83-2.61,2.08-5.55,3.13-8.81,3.13h-38.56c-13.57,0-25.28-1.31-35.13-3.91-9.85-2.61-18.43-7.18-25.74-13.7-.92-.78-1.7-.65-2.35.39-1.96,2.74-3.98,5.35-6.07,7.83-2.48,2.61-5.42,3.92-8.81,3.92h-1.96c-4.18-.66-7.83-2.74-10.96-6.26-.13-.26-.29-.49-.49-.68s-.46-.26-.78-.2c-.33.06-.49.29-.49.69v3.91c0,2.87-1.01,5.32-3.03,7.34-2.02,2.02-4.47,3.03-7.34,3.03s-5.32-1.01-7.34-3.03c-2.03-2.02-3.03-4.47-3.03-7.34v-91.6c0-.39-.13-.62-.39-.69-.26-.06-.46.03-.59.29-.91,1.17-1.7,2.35-2.35,3.52-1.44,1.96-3.33,2.94-5.68,2.94-.39,0-.85-.06-1.37-.2-3-.39-5.03-2.02-6.07-4.89-1.17-3-1.76-6.13-1.76-9.4v-2.74c.52-4.31,1.96-8.22,4.31-11.74,9.66-14.48,17.74-31.38,24.27-50.69.91-2.87,2.74-5.09,5.48-6.65,1.69-.78,3.39-1.17,5.09-1.17,1.04,0,2.15.13,3.33.39l2.35.78c2.35.65,4.04,2.02,5.09,4.11.65,1.17.98,2.42.98,3.72,0,.92-.2,1.83-.59,2.74-.13.65.13.98.78.98h21.33c.26,0,.46-.06.59-.2,2.09-.52,4.11-.52,6.07,0l4.5,1.17c1.96.52,3.42,1.7,4.4,3.52.98,1.83,1.08,3.72.29,5.68-4.83,13.05-10.57,27.53-17.22,43.45-.39.65-.2.98.59.98h3.52Zm-35.23-28.58c-.65,1.17-.98,2.42-.98,3.72v119.78c0,.39.2.65.59.78.39.13.72.13.98,0,5.35-4.43,10.11-10.18,14.29-17.22.65-1.04.65-2.22,0-3.52-4.57-8.87-8.42-19.18-11.55-30.92-.26-.91-.39-1.76-.39-2.54,0-1.57.46-3.13,1.37-4.7,1.3-2.22,3.26-3.72,5.87-4.5.78-.26,1.63-.39,2.54-.39,1.43,0,2.87.46,4.31,1.37,2.22,1.17,3.65,3,4.31,5.48,1.04,4.31,2.28,8.35,3.72,12.13.13.26.36.39.68.39s.49-.13.49-.39c2.61-9.13,4.7-19.7,6.26-31.71.13-.52.03-.98-.29-1.37-.33-.39-.75-.59-1.27-.59h-6.85c-.65,0-1.11.33-1.37.98-.92,2.09-2.42,3.66-4.5,4.7-1.31.65-2.74.98-4.31.98-.65,0-1.37-.06-2.15-.2l-1.96-.39c-2.48-.52-4.31-1.96-5.48-4.31-.65-1.17-.98-2.41-.98-3.72,0-1.04.26-2.15.78-3.33,6.26-14.48,12.53-29.75,18.79-45.8.13-.39.1-.75-.1-1.08-.2-.32-.49-.49-.88-.49h-3.52c-3,0-5.55-1.04-7.63-3.13-2.09-2.09-3.13-4.63-3.13-7.63,0-.13-.2-.2-.59-.2-2.09,5.74-4.44,11.68-7.05,17.81Zm80.44.2c1.3,0,1.96-.65,1.96-1.96v-4.89c0-1.3-.66-1.96-1.96-1.96h-14.29c-2.48,0-4.57-.85-6.26-2.54-1.7-1.69-2.54-3.75-2.54-6.17s.85-4.43,2.54-6.07c1.69-1.63,3.78-2.45,6.26-2.45h14.88c.91,0,1.37-.52,1.37-1.57v-2.54c0-3,1.08-5.54,3.23-7.63,2.15-2.09,4.7-3.13,7.63-3.13s5.45,1.05,7.54,3.13c2.09,2.09,3.13,4.63,3.13,7.63v2.54c0,1.05.52,1.57,1.57,1.57h15.27c4.7,0,8.71,1.66,12.04,4.99,3.33,3.33,4.99,7.34,4.99,12.04v8.02c0,.65.32.98.98.98h.2c2.35,0,4.37.85,6.07,2.54,1.69,1.7,2.54,3.75,2.54,6.17s-.85,4.47-2.54,6.17-3.72,2.54-6.07,2.54h-.2c-.65,0-.98.33-.98.98v8.61c0,4.7-1.66,8.71-4.99,12.04s-7.34,4.99-12.04,4.99h-14.88c-1.31,0-1.96.65-1.96,1.96v5.48c0,1.31.65,1.96,1.96,1.96h24.47c2.35,0,4.37.85,6.07,2.54,1.69,1.7,2.54,3.72,2.54,6.07s-.85,4.37-2.54,6.07-3.72,2.54-6.07,2.54h-24.47c-1.31,0-1.96.66-1.96,1.96v5.87c0,1.31.65,1.96,1.96,1.96h29.36c2.35,0,4.37.85,6.07,2.54,1.69,1.7,2.54,3.75,2.54,6.17s-.85,4.44-2.54,6.07c-1.7,1.63-3.72,2.45-6.07,2.45h-29.36c-1.31,0-1.96.65-1.96,1.96v5.68c0,3-1.05,5.55-3.13,7.63-2.09,2.09-4.6,3.13-7.54,3.13s-5.48-1.04-7.63-3.13c-2.15-2.09-3.23-4.63-3.23-7.63v-5.68c0-1.3-.59-1.96-1.76-1.96h-21.92c-2.48,0-4.54-.81-6.17-2.45-1.63-1.63-2.45-3.65-2.45-6.07s.81-4.47,2.45-6.17c1.63-1.69,3.69-2.54,6.17-2.54h21.72c1.3,0,1.96-.65,1.96-1.96v-5.87c0-1.3-.66-1.96-1.96-1.96h-16.83c-2.35,0-4.37-.85-6.07-2.54-1.7-1.69-2.54-3.72-2.54-6.07s.85-4.37,2.54-6.07,3.72-2.54,6.07-2.54h16.83c1.3,0,1.96-.65,1.96-1.96v-5.48c0-1.3-.66-1.96-1.96-1.96h-14.29c-2.48,0-4.57-.85-6.26-2.54-1.7-1.69-2.54-3.72-2.54-6.07s.85-4.37,2.54-6.07,3.78-2.54,6.26-2.54h14.29c1.3,0,1.96-.65,1.96-1.96v-5.48c0-1.3-.66-1.96-1.96-1.96h-27.4c-2.35,0-4.37-.85-6.07-2.54-1.7-1.69-2.54-3.75-2.54-6.17s.85-4.47,2.54-6.17c1.69-1.69,3.72-2.54,6.07-2.54h27.4Zm37.38-6.85c0-1.3-.65-1.96-1.96-1.96h-9.98c-1.31,0-1.96.65-1.96,1.96v4.89c0,1.31.65,1.96,1.96,1.96h9.98c1.3,0,1.96-.65,1.96-1.96v-4.89Zm-1.96,33.67c1.3,0,1.96-.65,1.96-1.96v-5.48c0-1.3-.65-1.96-1.96-1.96h-9.98c-1.31,0-1.96.65-1.96,1.96v5.48c0,1.31.65,1.96,1.96,1.96h9.98Z" fill="#8c4948"/>
    <path d="m1584.61,320.37c2.09-2.87,4.89-4.83,8.42-5.87,1.3-.39,2.61-.59,3.91-.59,2.09,0,4.17.46,6.26,1.37,3.13,1.57,5.09,3.98,5.87,7.24.26,1.05.39,2.02.39,2.94,0,2.09-.65,4.11-1.96,6.07-7.18,9.66-15.4,19.12-24.66,28.38-.91.92-1.37,2.02-1.37,3.33v44.82c0,7.05-.82,12.46-2.45,16.25-1.63,3.78-4.6,6.59-8.91,8.42-5.35,2.35-14.55,3.78-27.6,4.31h-.59c-3.52,0-6.72-1.17-9.59-3.52-3-2.48-5.16-5.61-6.46-9.39-.39-1.04-.59-2.02-.59-2.94,0-1.83.59-3.52,1.76-5.09,1.57-2.35,3.85-3.52,6.85-3.52h6.66c3.78,0,7.37-.06,10.76-.2,3.65,0,5.48-1.5,5.48-4.5v-23.68c0-.39-.2-.69-.59-.88-.39-.2-.72-.16-.98.1-27.14,20.1-58.85,36.08-95.12,47.95-1.7.65-3.39.98-5.09.98-1.96,0-3.98-.39-6.07-1.17-3.79-1.44-6.85-3.79-9.2-7.05-1.31-1.69-1.96-3.46-1.96-5.29,0-1.04.2-2.02.59-2.94.91-3,2.87-4.96,5.87-5.87,25.31-7.31,48.34-16.76,69.09-28.38.26-.13.36-.29.29-.49-.07-.2-.23-.29-.49-.29-29.23,2.35-50.56,4.05-64,5.09h-.98c-3,0-5.68-.98-8.03-2.94-2.61-2.09-4.18-4.83-4.7-8.22v-1.57c0-2.48.85-4.76,2.54-6.85,1.96-2.48,4.57-3.78,7.83-3.91,4.83-.13,10.05-.32,15.66-.59,1.3,0,1.96-.65,1.96-1.96v-73.98c0-4.7,1.66-8.71,4.99-12.04s7.34-4.99,12.04-4.99h22.51c1.3,0,2.15-.59,2.54-1.76.52-1.3.98-2.54,1.37-3.72,1.43-4.04,3.92-7.24,7.44-9.59,3.13-1.96,6.39-2.94,9.79-2.94h1.76c3.52.39,6.13,2.09,7.83,5.09.78,1.57,1.17,3.07,1.17,4.5,0,1.57-.39,3.13-1.17,4.7-.26.39-.65,1.05-1.17,1.96-.26.39-.26.78,0,1.17.26.39.59.59.98.59h30.92c4.7,0,8.71,1.66,12.04,4.99s4.99,7.34,4.99,12.04v36.8c0,.26.13.42.39.49.26.07.52.03.78-.1.65-.91,1.3-1.83,1.96-2.74Zm-27.79-29.16c0-1.3-.65-1.96-1.96-1.96h-65.57c-1.31,0-1.96.65-1.96,1.96v7.83c0,1.31.65,1.96,1.96,1.96h65.57c1.3,0,1.96-.65,1.96-1.96v-7.83Zm-1.96,38.75c1.3,0,1.96-.65,1.96-1.96v-8.03c0-1.3-.65-1.96-1.96-1.96h-65.57c-1.31,0-1.96.65-1.96,1.96v8.03c0,1.31.65,1.96,1.96,1.96h65.57Zm-65.57,17.42c-1.31,0-1.96.65-1.96,1.96v9.39c0,.52.2.98.59,1.37s.85.59,1.37.59c11.61-.65,30.99-1.69,58.13-3.13,1.3-.13,2.48-.59,3.52-1.37.78-.65,1.69-1.43,2.74-2.35.65-.65,1.24-1.17,1.76-1.57.91-.78,1.37-1.79,1.37-3.03s-.65-1.86-1.96-1.86h-65.57Z" fill="#8c4948"/>
  </g>
  <g>
    <path d="m773.91,604.72c-1.55,1.55-3.4,2.32-5.57,2.32s-4.02-.77-5.57-2.32c-1.55-1.55-2.32-3.4-2.32-5.57v-70.29c0-2.71.95-5.01,2.84-6.9,1.89-1.89,4.19-2.84,6.9-2.84,2.94,0,5.61.85,8,2.55,2.4,1.7,4.1,3.91,5.1,6.61l11.6,32.01c.31.93,2.05,6.5,5.22,16.7.08.16.21.23.41.23s.33-.08.41-.23c.54-1.7,1.39-4.43,2.55-8.18,1.16-3.75,2.05-6.59,2.67-8.53l11.37-32.01c1-2.71,2.71-4.91,5.1-6.61,2.4-1.7,5.03-2.55,7.89-2.55,2.71,0,5,.95,6.9,2.84,1.89,1.9,2.84,4.2,2.84,6.9v70.17c0,2.24-.77,4.14-2.32,5.68-1.55,1.55-3.42,2.32-5.62,2.32s-4.1-.77-5.68-2.32c-1.59-1.55-2.38-3.44-2.38-5.68v-28.65c0-5.03.7-14.57,2.09-28.65.08-.15.02-.23-.17-.23s-.29.08-.29.23l-7.08,20.41-11.83,32.24c-.54,1.39-1.43,2.51-2.67,3.36-1.24.85-2.61,1.28-4.12,1.28s-2.88-.42-4.12-1.28c-1.24-.85-2.13-1.97-2.67-3.36l-11.95-32.24-6.84-20.41c-.08-.15-.19-.23-.35-.23s-.23.08-.23.23c1.47,14.77,2.2,24.32,2.2,28.65v28.76c0,2.17-.77,4.02-2.32,5.57Z" fill="#8c4948"/>
    <path d="m925.22,596.26c-7.23,8.27-16.72,12.41-28.47,12.41s-21.25-4.14-28.47-12.41c-7.23-8.27-10.84-19.45-10.84-33.52s3.6-25.13,10.79-33.17c7.19-8.04,16.7-12.06,28.53-12.06s21.34,4.02,28.53,12.06c7.19,8.04,10.79,19.1,10.79,33.17s-3.62,25.25-10.84,33.52Zm-44.02-11.13c3.87,5.57,9.06,8.35,15.6,8.35s11.73-2.78,15.6-8.35c3.87-5.57,5.8-13.03,5.8-22.39s-1.93-16.72-5.8-22.09c-3.87-5.37-9.09-8.06-15.66-8.06s-11.77,2.69-15.6,8.06c-3.83,5.38-5.74,12.74-5.74,22.09s1.93,16.82,5.8,22.39Z" fill="#8c4948"/>
    <path d="m1015.86,598.58c.54.93.81,1.86.81,2.78s-.27,1.9-.81,2.9c-1.08,1.86-2.75,2.78-4.99,2.78-3.01,0-5.82-.77-8.41-2.32-2.59-1.55-4.58-3.63-5.97-6.26l-12.87-23.66c-.39-.7-.97-1.04-1.74-1.04h-9.86c-.77,0-1.16.39-1.16,1.16v23.31c0,2.48-.87,4.56-2.61,6.26-1.74,1.7-3.81,2.55-6.21,2.55s-4.47-.85-6.21-2.55c-1.74-1.7-2.61-3.79-2.61-6.26v-69.01c0-2.78.99-5.16,2.96-7.13s4.35-2.96,7.13-2.96h20.53c22.04,0,33.06,8.89,33.06,26.68,0,12.06-5.22,20.34-15.66,24.82-.7.31-.85.77-.46,1.39l15.08,26.56Zm-43.84-65.53c-.77,0-1.16.39-1.16,1.16v24.47c0,.77.39,1.16,1.16,1.16h10.21c5.64,0,9.97-1.18,12.99-3.54,3.02-2.36,4.52-5.86,4.52-10.5s-1.45-7.92-4.35-9.86c-2.9-1.93-7.29-2.9-13.16-2.9h-10.21Z" fill="#8c4948"/>
    <path d="m1044.28,607.04c-2.78,0-5.16-.99-7.13-2.96s-2.96-4.35-2.96-7.13v-67.74c0-2.78.99-5.16,2.96-7.13s4.35-2.96,7.13-2.96h36.54c2.01,0,3.73.72,5.16,2.15,1.43,1.43,2.15,3.15,2.15,5.16s-.72,3.73-2.15,5.16-3.15,2.15-5.16,2.15h-27.84c-.77,0-1.16.39-1.16,1.16v17.98c0,.77.39,1.16,1.16,1.16h22.27c2.09,0,3.85.72,5.28,2.15,1.43,1.43,2.15,3.17,2.15,5.22s-.72,3.79-2.15,5.22-3.19,2.15-5.28,2.15h-22.27c-.77,0-1.16.39-1.16,1.16v21.23c0,.77.39,1.16,1.16,1.16h29.11c2.01,0,3.73.72,5.16,2.15,1.43,1.43,2.15,3.17,2.15,5.22s-.72,3.79-2.15,5.22-3.15,2.15-5.16,2.15h-37.81Z" fill="#8c4948"/>
    <path d="m1149.07,604.49c-1.74,1.7-3.81,2.55-6.21,2.55s-4.47-.85-6.21-2.55c-1.74-1.7-2.61-3.79-2.61-6.26v-69.01c0-2.78.99-5.16,2.96-7.13s4.35-2.96,7.13-2.96h36.77c2.01,0,3.73.72,5.16,2.15,1.43,1.43,2.15,3.15,2.15,5.16s-.72,3.73-2.15,5.16-3.15,2.15-5.16,2.15h-28.07c-.77,0-1.16.39-1.16,1.16v20.65c0,.77.39,1.16,1.16,1.16h22.73c2.01,0,3.73.72,5.16,2.15,1.43,1.43,2.15,3.17,2.15,5.22s-.72,3.79-2.15,5.22-3.15,2.15-5.16,2.15h-22.73c-.77,0-1.16.39-1.16,1.16v25.63c0,2.48-.87,4.56-2.61,6.26Z" fill="#8c4948"/>
    <path d="m1218.54,604.49c-1.74,1.7-3.81,2.55-6.21,2.55s-4.47-.85-6.21-2.55c-1.74-1.7-2.61-3.79-2.61-6.26v-70.29c0-2.4.87-4.47,2.61-6.21,1.74-1.74,3.81-2.61,6.21-2.61s4.46.87,6.21,2.61c1.74,1.74,2.61,3.81,2.61,6.21v70.29c0,2.48-.87,4.56-2.61,6.26Z" fill="#8c4948"/>
    <path d="m1275.08,604.49c-1.7,1.7-3.77,2.55-6.21,2.55s-4.51-.85-6.21-2.55c-1.7-1.7-2.55-3.79-2.55-6.26v-63.33c0-.77-.39-1.16-1.16-1.16h-16.24c-2.01,0-3.73-.71-5.16-2.15-1.43-1.43-2.15-3.15-2.15-5.16s.71-3.73,2.15-5.16c1.43-1.43,3.15-2.15,5.16-2.15h52.54c2.01,0,3.73.72,5.16,2.15,1.43,1.43,2.15,3.15,2.15,5.16s-.72,3.73-2.15,5.16-3.15,2.15-5.16,2.15h-16.47c-.77,0-1.16.39-1.16,1.16v63.33c0,2.48-.85,4.56-2.55,6.26Z" fill="#8c4948"/>
    <path d="m1331.11,604.61c-1.62,1.62-3.6,2.44-5.92,2.44s-4.29-.81-5.92-2.44c-1.62-1.62-2.44-3.6-2.44-5.92v-70.52c0-2.47.87-4.6,2.61-6.38,1.74-1.78,3.85-2.67,6.32-2.67,2.78,0,5.37.72,7.77,2.15,2.4,1.43,4.25,3.34,5.57,5.74l21.23,38.97,8.7,18.67c.08.23.21.35.41.35s.29-.12.29-.35c-1.55-14.23-2.32-24.4-2.32-30.5v-26.68c0-2.32.81-4.29,2.44-5.92,1.62-1.62,3.6-2.44,5.92-2.44s4.29.81,5.92,2.44c1.62,1.62,2.44,3.59,2.44,5.92v70.63c0,2.48-.87,4.58-2.61,6.32-1.74,1.74-3.85,2.61-6.32,2.61-2.71,0-5.26-.7-7.66-2.09-2.4-1.39-4.21-3.32-5.45-5.8l-21.22-39.2-8.82-18.56c-.08-.15-.21-.23-.41-.23s-.29.08-.29.23c.15,1.16.39,3.52.7,7.08.31,3.56.54,6.28.7,8.18.15,1.9.33,4.31.52,7.25.19,2.94.29,5.57.29,7.89v26.91c0,2.32-.81,4.29-2.44,5.92Z" fill="#8c4948"/>
    <path d="m1415.77,607.04c-2.78,0-5.16-.99-7.13-2.96s-2.96-4.35-2.96-7.13v-67.74c0-2.78.99-5.16,2.96-7.13s4.35-2.96,7.13-2.96h36.54c2.01,0,3.73.72,5.16,2.15,1.43,1.43,2.15,3.15,2.15,5.16s-.72,3.73-2.15,5.16-3.15,2.15-5.16,2.15h-27.84c-.77,0-1.16.39-1.16,1.16v17.98c0,.77.39,1.16,1.16,1.16h22.27c2.09,0,3.85.72,5.28,2.15,1.43,1.43,2.15,3.17,2.15,5.22s-.72,3.79-2.15,5.22-3.19,2.15-5.28,2.15h-22.27c-.77,0-1.16.39-1.16,1.16v21.23c0,.77.39,1.16,1.16,1.16h29.11c2.01,0,3.73.72,5.16,2.15,1.43,1.43,2.15,3.17,2.15,5.22s-.72,3.79-2.15,5.22-3.15,2.15-5.16,2.15h-37.81Z" fill="#8c4948"/>
    <path d="m1504.85,608.67c-9.36,0-17.98-2.63-25.86-7.89-1.78-1.16-2.78-2.86-3.02-5.1v-.81c0-1.86.66-3.52,1.97-4.99,1.31-1.62,3.05-2.55,5.22-2.78.39-.08.73-.12,1.04-.12,1.78,0,3.44.5,4.99,1.51,5.41,3.33,10.79,4.99,16.12,4.99,4.48,0,7.93-.89,10.32-2.67,2.4-1.78,3.6-4.25,3.6-7.42,0-2.86-.93-5-2.78-6.44-1.86-1.43-5.03-3.11-9.51-5.05-.39-.15-.66-.27-.81-.35l-11.83-4.99c-5.1-2.16-9.34-5.18-12.7-9.05-3.36-3.87-5.04-8.74-5.04-14.61,0-7.27,2.86-13.32,8.58-18.15,5.72-4.83,12.99-7.25,21.8-7.25,8.12,0,15.5,2.24,22.15,6.73,1.62,1.08,2.51,2.67,2.67,4.76v.58c0,1.78-.58,3.36-1.74,4.75-1.16,1.47-2.75,2.32-4.76,2.55-.39.08-.77.12-1.16.12-1.55,0-3.02-.39-4.41-1.16-3.94-2.16-8.2-3.25-12.76-3.25-3.87,0-6.96.81-9.28,2.44-2.32,1.62-3.48,3.91-3.48,6.84,0,1.47.31,2.75.93,3.83.62,1.08,1.64,2.09,3.07,3.02,1.43.93,2.71,1.66,3.83,2.2,1.12.54,2.84,1.24,5.16,2.09.39.16.66.27.81.35l11.48,4.87c5.8,2.4,10.21,5.47,13.22,9.22,3.02,3.75,4.52,8.64,4.52,14.67,0,7.5-2.92,13.8-8.76,18.91-5.84,5.1-13.71,7.66-23.6,7.66Z" fill="#8c4948"/>
    <path d="m1576.76,608.67c-9.36,0-17.98-2.63-25.86-7.89-1.78-1.16-2.78-2.86-3.02-5.1v-.81c0-1.86.66-3.52,1.97-4.99,1.31-1.62,3.05-2.55,5.22-2.78.39-.08.73-.12,1.04-.12,1.78,0,3.44.5,4.99,1.51,5.41,3.33,10.79,4.99,16.12,4.99,4.48,0,7.93-.89,10.32-2.67,2.4-1.78,3.6-4.25,3.6-7.42,0-2.86-.93-5-2.78-6.44-1.86-1.43-5.03-3.11-9.51-5.05-.39-.15-.66-.27-.81-.35l-11.83-4.99c-5.1-2.16-9.34-5.18-12.7-9.05-3.36-3.87-5.04-8.74-5.04-14.61,0-7.27,2.86-13.32,8.58-18.15,5.72-4.83,12.99-7.25,21.8-7.25,8.12,0,15.5,2.24,22.15,6.73,1.62,1.08,2.51,2.67,2.67,4.76v.58c0,1.78-.58,3.36-1.74,4.75-1.16,1.47-2.75,2.32-4.76,2.55-.39.08-.77.12-1.16.12-1.55,0-3.02-.39-4.41-1.16-3.94-2.16-8.2-3.25-12.76-3.25-3.87,0-6.96.81-9.28,2.44-2.32,1.62-3.48,3.91-3.48,6.84,0,1.47.31,2.75.93,3.83.62,1.08,1.64,2.09,3.07,3.02,1.43.93,2.71,1.66,3.83,2.2,1.12.54,2.84,1.24,5.16,2.09.39.16.66.27.81.35l11.48,4.87c5.8,2.4,10.21,5.47,13.22,9.22,3.02,3.75,4.52,8.64,4.52,14.67,0,7.5-2.92,13.8-8.76,18.91-5.84,5.1-13.71,7.66-23.6,7.66Z" fill="#8c4948"/>
  </g>
  <g>
    <g>
      <path d="m577.31,396.36c.16-1.77,1.55-3.92,2.13-5.67.65-1.96,1.18-3.96,1.64-5.98.91-4.05,1.47-8.17,1.9-12.3.12-1.14.36-2.48,1.4-2.96.69-.32,1.53-.13,2.14.31s1.05,1.09,1.43,1.74c1.67,2.86,2.65,6.12,2.82,9.43.08,1.44,0,2.92.33,4.32s.87,1.78.34,3.14c-.73,1.85-1.89,3.61-3.36,4.95-1.39,1.27-3.07,2.15-4.89,2.63-1.67.44-4.2.66-5.89.38Z" fill="#8d4844"/>
      <path d="m511.77,209.72s-27.45,14.17-39.82,33.41c0,0,2.36,14.62,22.27,15.52,0,0,28.12-43.76,17.55-48.94Z" fill="#fff"/>
      <path d="m329.53,220.63s43.76,10.91,50.85,39.04l-14.85,17.55s-41.51-35.77-36-56.58Z" fill="#fff"/>
      <path d="m492.76,498.04s-29.25,10.69-69.52,3.6c0,0-13.8,58.35,44.55,69.6,0,0,30.3-45,24.97-73.2Z" fill="#fff"/>
      <path d="m505.02,452.86c-.26,7.19-.36,14.15-.8,21.08-1.53,24.11-5.36,47.8-13.84,70.55-1.23,3.3-3.02,6.42-3.94,9.79-.91,3.36.4,6.88.23,10.38-.44,8.77-1.19,17.5-2.57,26.17-.43,2.69-.41,2.7,2.33,2.62,12.03-.36,23.66,1.34,34.33,7.27,8.51,4.73,14.84,11.36,17.33,21.08.58,2.28.84,4.54-.12,6.83-1.48,3.58-4.24,5.21-7.93,5.77-11.89,1.81-23.83,2.7-35.85,2.3-16.96-.56-33.5-3.5-49.6-8.96-4.44-1.51-6.64-4.32-6.84-8.9-.12-2.62-.42-5.24-.45-7.86-.02-1.78-.39-2.05-1.99-1.15-7.09,3.99-14.58,7-22.48,8.96-2.91.72-5.88,1.18-8.89,1.24-1.44.03-2.93,0-4.16-.72-1.47-.86-1.74-.27-2.21,1.05-.78,2.19.62,2.1,1.98,2.3,10.81,1.57,21.09,4.63,29.95,11.31,8.26,6.24,13.45,14.29,13.46,24.95,0,3.93-.74,7.82-4.44,10.28-2.28,1.51-4.91,1.8-7.52,1.99-18.25,1.35-36.17.04-53.79-5.45-10.46-3.26-20.93-6.37-30.61-11.6-2.5-1.35-4.86-2.97-7.22-4.56-2.26-1.53-3.36-3.72-3.45-6.47-.23-6.98.06-13.94.74-20.89.28-2.88.34-2.87-2.43-2.88-11.86-.04-23.21-2.49-34.06-7.24-.92-.4-1.72-.71-2.74-.16-13.85,7.45-28.82,11.29-44.24,13.65-15.59,2.39-31.25,3.74-47.04,3.36-15.06-.36-29.56-3.59-43.7-8.62-1.7-.6-3.3-1.44-4.73-2.55-4.9-3.82-4.67-9.93.56-13.32,3.25-2.11,6.99-3.06,10.64-4.17,19.58-5.94,38.89-12.67,57.62-20.95,8.07-3.56,15.28-8.56,22.01-14.25.94-.79,1.21-1.43.53-2.63-8.27-14.67-9.63-30.34-6.58-46.62,3.07-16.36,10.41-30.54,21.86-42.59,6.5-6.84,13.12-13.58,19.7-20.35,2.72-2.8,5.26-5.75,7.68-8.81.73-.92.93-1.72.05-2.77-9.34-11.24-12.6-24.61-13.43-38.81-.12-2.02-.11-4.05-.09-6.07,0-1.06-.19-1.66-1.48-1.59-5.68.29-11.36.14-17.04.74-7.9.84-15.88,1.33-23.57-1.54-11.51-4.29-19.3-12.58-24.82-23.26-3.27-6.32-5.24-13.07-6.15-20.11-.2-1.53-.77-1.96-2.26-1.98-7.65-.13-15.29-.38-22.93-.57-1.28-.03-2.55-.11-3.77-.54-2.57-.9-4.23-3.32-4.06-5.85.18-2.58,2.09-4.76,4.75-5.32,1.85-.39,3.74-.22,5.61-.17,6.6.2,13.19.33,19.78.65,1.96.1,2.53-.51,2.73-2.42,1.12-10.57,4.51-20.33,11.22-28.69,7.74-9.65,17.63-15.01,30.28-15.01,11.76,0,23.48.73,35.18,1.62,3.64.28,6.53,2.87,9.14,5.37,5.58,5.37,9.17,11.99,11.6,19.26.56,1.66,1.33,2.28,3.09,2.5,9.87,1.21,17.53,8.96,19.09,19.32.28,1.83.83,2.5,2.77,2.55,5.84.14,11.68.51,17.52.85,1.45.08,1.96-.08,1.53-1.81-5.51-22.62-2.93-44.47,6.44-65.64.34-.77,1.03-1.48-.23-2.24-7.67-4.62-12.86-11.62-17.55-18.97-6.61-10.38-10.62-21.64-10.41-34.12.09-5.1,1.06-10.03,3.94-14.34,4.7-7.02,11.72-8.65,19.55-7.92,11.42,1.07,21.28,5.94,30.13,12.99,6.16,4.91,11.96,10.23,17.03,16.28.72.86,1.39,1.11,2.5.72,15.54-5.42,31.47-6.44,47.67-4.08,1.55.23,2.16-.34,2.94-1.6,9.18-14.87,21.42-26.34,37.75-33.02,5.76-2.36,11.86-3.31,18.08-2.17,9.47,1.73,15.81,8.94,16.63,18.64.73,8.55-1.72,16.47-4.9,24.22-3.34,8.13-7.44,15.88-12.24,23.24-1.45,2.22-1.87,3.74-.23,6.42,5.46,8.89,9.74,18.4,13.05,28.32,4.31,12.92,6.74,26.1,5.65,39.79-.5,6.24-1.71,12.32-3.96,18.16-.61,1.59-.34,2.05,1.4,2.08,4.21.08,4.2.16,4.79-4.04,2.88-20.67,17.71-36.76,38.1-41.08,6.71-1.42,13.58-1.29,20.4-1.04,8.09.31,16.17,1.13,24.25,1.2,6.68.06,11.54,3.15,15.68,7.83,8.95,10.13,13.54,22.13,14.88,35.47.17,1.71.31,3.44.31,5.16,0,1.18.44,1.56,1.58,1.58,2.47.06,4.95.13,7.41.38,3.41.35,5.72,2.87,5.61,5.89-.12,3.13-2.44,5.53-5.81,5.74-2.16.14-4.35.01-6.52-.04-3.22-.07-3.2-.09-3.83,2.99-2.54,12.31-7.89,23.18-16.41,32.5-3.07,3.36-6.7,5.1-11.26,5.11-7.2.02-14.39.05-21.58-.44-2.66-.18-5.2-1.31-8-.7-1.44.31-2.17.76-2.69,2.13-3.66,9.54-8.15,18.68-13.88,27.16-5.4,8-11.62,15.25-19.75,20.67-11.63,7.77-25.52,8.87-37.19-.42-.17-.13-.37-.21-.8-.45Zm-233-128.96c-.51-1.24,1.31-3.63-1.78-3.59-.55-.96-1.13-1.9-1.65-2.87-.7-1.32-1.87-2.27-2.34-3.89-.24-.82-2.11-1.61-3.11-2.6-4.52-4.48-9.42-8.14-16.25-7.79-.36.02-.73-.25-1.09-.23-2.52.12-5.31-.35-7.48.59-3.07,1.33-6.33,2.75-8.61,5.42-2.07,2.42-4.7,4.32-6.33,7.13-3.28,5.64-5.39,11.65-6.32,18.11-.43,3-.43,3.19,2.67,3.22,5.53.06,11.07-.26,16.58.44,1.55.2,3.11.35,4.65.56,2.21.3,2.09,2.51,3.07,3.82,1.43,1.91-.47,6.66-2.82,6.83-3.12.22-6.26.95-9.38.44-4.11-.66-8.22-.25-12.32-.38-2.31-.07-3,.77-2.27,2.99,1.75,5.31,2.97,10.78,6.04,15.66,2.27,3.6,4.6,7.26,7.83,9.79,3.42,2.68,7.08,5.09,11.8,6.08,5.97,1.25,11.22.06,16.19-2.48,3.88-1.98,7.04-5.29,9.5-8.97,2.76-4.12,4.76-8.61,6.27-13.38.85-2.68.28-5.38.93-7.95,1.67-6.66.51-13.08-1.22-19.47-.36-1.31-.81-2.54-.72-3.91.08-1.52.08-3.01-1.77-3.59l-.06.02Zm5.42,57.14c1.78.42,3.57-.02,5.34.08,1.67.1,2.48-.79,3.04-2.11,1.59-3.71,3.44-7.32,4.74-11.15,3.87-11.37,5.21-22.99,3.63-34.94-1.27-9.63-5.12-18.24-9.99-26.5-1-1.69-2.08-2.43-4.1-2.3-1.69.11-3.39.52-5.14.19-1.16-.22-1.03.55-.51,1.21.87,1.12,1.87,2.15,2.68,3.31,6.04,8.64,9.63,18.21,10.73,28.7,1.56,14.86-.97,28.77-9.51,41.31-.44.65-1.21,1.2-.92,2.18-.06.02-.13.02-.17.05-.03.02-.02.09-.04.13.07-.06.14-.12.21-.18Zm311.38,7.68c.86.03,1.51-.28,2.2-.85,2.78-2.31,5.61-4.51,8.18-7.1,3.59-3.62,5.53-8.03,7.64-12.45,1.44-3.02,1.59-6.29,2.27-9.46.55-2.6.59-5.18.09-7.78-.65-3.38-1.16-6.74-2.17-10.1-1.54-5.12-3.83-9.68-7.22-13.65-3.8-4.46-8.15-8.36-13.69-10.71-4.51-1.91-8.99-3.7-14.05-3.56-2.77.08-5.45.4-8.18.87-3.37.58-6.53,1.78-9.35,3.47-4.48,2.68-8.24,6.31-11.54,10.41-1.92,2.39-3.33,5.19-4.36,7.88-1.13,2.96-2.4,6.06-2.29,9.55.09,2.67.32,3.39,2.84,2.59.36-.11.61-.35,1-.09,2.11,1.37,3.67-.21,4.13-1.61.71-2.15,1.9-3.88,3-5.76,2.16-3.68,5.54-6.04,8.93-8.25,2.99-1.95,6.55-2.55,10.18-3.07,6.15-.88,11.76.73,16.75,3.52,3.76,2.11,6.78,5.84,8.97,9.75.78,1.4,1.87,2.83,2.07,4.59.43,3.87,1.48,7.7.04,11.62-.93,2.53-1.19,5.23-2.91,7.54-1.44,1.94-2.81,3.93-4.4,5.76-2.27,2.6-1.33,6.1-2.59,9-.58,1.32-1.27,2.71-.98,4.27-1.39,1.07-1.78,2.53-1.78,4.2,0,1.02,0,2.32,1,2.47,1.02.16,2.42.05,3.06-1.26.15,0,.3-.01.46-.02,1.36.12,2.28-.45,2.69-1.77Zm-110.85-143.21c-3.8.88-6,.08-7.48-2.66-1.46-2.7-.54-5.1.95-7.36,8.62-13.13,20.14-23.02,34-30.26,3.46-1.81,3.61-2.99.46-5.52-.81-.65-1.71-1.17-2.78-1.4-5.49-1.21-10.63.18-15.45,2.54-12.58,6.16-22.23,15.59-29.47,27.52-2.27,3.74-8.54,7.75-13.44,6.82-12.54-2.39-25.04-1.54-37.38,1.54-3.06.77-6.27,1.37-8.56,4.08-.93,1.1-2.61,1.24-4.21.91-2.31-.48-3.83-2-5.19-3.7-6.72-8.42-14.33-15.93-23.33-21.87-6.65-4.38-13.89-7.37-22.11-7.02-3.27.14-5.06,1.48-6.28,4.51-.45,1.13-.23,1.52.94,1.89,17.83,5.6,30.74,17.44,40.97,32.59,2.78,4.11,1.61,9.9-5.05,10.21-2.65-.4-4.05-2.41-5.36-4.39-4.99-7.52-11.12-13.91-18.42-19.19-4.07-2.94-8.42-5.35-13.54-7.24.33,1.54.51,2.7.82,3.83,2.3,8.37,6.32,15.86,11.82,22.53,2.9,3.52,6.07,6.82,9.06,10.28,1.44,1.66,2.38,3.79,4.82,4.42.86.22,1.32,1.18,1.76,1.97.75,2.26.39,4.44-.52,6.55-.8,1.86-1.71,3.67-2.51,5.52-3.83,8.89-5.91,18.23-6.63,27.84-.74,9.83-.31,19.62,2.72,29.13,3.46,10.85,9.5,19.93,18.24,27.26,2.63,2.21,3.06,5.97,1.26,8.26-1.69,2.15-5.56,2.68-8.22.9-1.79-1.2-3.39-2.7-5.02-4.12-.68-.59-1.22-.89-2.17-.44-11.48,5.42-21.9,12.3-30.57,21.71-1.75,1.89-2.25,3.79-1.85,6.3.86,5.39,1.66,10.81,1.62,16.29-.03,3.62-2.49,6.22-5.71,6.28-3.27.06-5.67-2.37-6.02-6.01-.38-3.87-.81-7.73-1.24-11.6-1.53-13.96-4.49-27.59-9.16-40.85-1.35-3.83-1.22-7.55,1.13-11.16,2.8-4.3,2.86-9.08,1.45-13.85-.74-2.5-2.39-4.45-4.62-5.9-1.2-.78-1.6-.51-1.47.87.17,1.79.34,3.58.43,5.37.55,11.06-1.05,21.84-4.66,32.26-2.4,6.93-4.82,14.05-9.57,19.7-2.29,2.72-2.43,5.23-2.37,8.18.04,1.87.21,3.74.37,5.6.69,7.9,2.39,15.53,6.05,22.63,6.81,13.18,19.45,17.95,33.16,12.58,11.32-4.43,19.87-12.33,27.3-21.65,2.48-3.11,4.69-6.4,6.91-9.69,2.34-3.48,6.06-4.1,9.11-1.7,2.28,1.8,2.64,5.42.6,8.58-8.9,13.77-19.54,25.84-34.44,33.36-11.54,5.82-23.47,7.47-35.65,1.75-1.11-.52-1.58-.17-2.18.65-2.17,2.96-4.55,5.75-7.11,8.39-7.35,7.58-14.7,15.16-21.97,22.81-5.25,5.52-9.36,11.83-12.6,18.74-3.41,7.27-5.34,14.9-6.28,22.84-1.2,10.12-.03,19.84,4.26,29.14,1.45,3.14,3.36,6.01,4.99,9.05,1.88,3.51,1.01,6.59-2.32,8.66-.57.35-1.12.75-1.61,1.2-9.64,9-20.69,15.85-32.85,20.82-15.67,6.42-31.59,12.17-47.75,17.22-1.23.38-2.45.79-3.94,1.27,1.35,1.08,2.59,1.07,3.71,1.4,10.71,3.14,21.7,4.48,32.81,4.47,7.17-.01,14.36-.39,21.53-1.05,11.19-1.02,22.31-2.42,33.25-5.03,10.53-2.51,20.74-5.84,29.91-11.86,3.12-2.05,5.63-1.61,8.31.97.73.7,1.55,1.16,2.45,1.54,9.95,4.2,20.36,5.93,31.12,5.86,1.24,0,1.16-.78,1.25-1.4.55-3.47,1-6.96,1.52-10.44.9-6.06,1.74-12.14,2.78-18.18.62-3.64,3.29-5.59,6.69-5.25,3.05.3,4.97,2.78,4.95,6.4,0,.75,0,1.51-.1,2.25-2.62,17.68-5.6,35.31-6.64,53.19-.36,6.22-.04,7.23,5.56,10.12.47.24.94.46,1.42.69,7.91,3.83,16.29,6.33,24.63,9.03,15.8,5.12,31.95,6.31,48.37,5.61.52-.02,1.04-.19,1.55-.19,1.71.01,1.94-.98,1.74-2.38-.35-2.48-1.12-4.81-2.47-6.93-4.22-6.63-10.74-10.05-17.85-12.54-9.08-3.18-18.51-4.19-28.08-4.05-1.44.02-2.85-.1-4.22-.51-3.93-1.18-5.25-5.25-2.99-8.65,1.67-2.52,4.27-2.77,6.76-2.72,2.68.05,3.25-1.36,3.86-3.51,2.71-9.5,3.83-19.24,4.27-29.03.64-14.33-.66-28.47-6.6-41.79-6.25-13.99-16.23-23.81-31.68-26.98-6.34-1.3-12.82-1.03-19.26-1.03-1.58,0-3.15-.03-4.59-.84-2.15-1.21-2.73-3.53-1.29-5.54.7-.98,1.58-1.76,2.72-2.28,6.32-2.86,12.91-3.43,19.75-2.74,14.8,1.49,26.83,8.16,36.14,19.57,11.09,13.59,15.48,29.73,16.51,46.86.66,10.92.22,21.86-1.48,32.71-.18,1.18-.04,1.67,1.35,1.42,2.5-.46,5.07-.56,7.54-1.12,8.55-1.95,16.41-5.55,23.93-10.04,9.53-5.69,18.13-12.46,25.35-20.93.94-1.11,1.21-1.59-.6-1.87-1.83-.29-3.65-.85-5.4-1.49-16.1-5.82-26.21-17.59-32.51-33.04-2.94-7.2-4.34-14.78-4.85-22.51-.31-4.72.16-9.41.7-14.11.58-5.06,6.9-9.52,12.47-7.8,8.49,2.63,17.32,3.28,26.18,3.46,5.85.11,11.68-.2,17.48-.96,5.72-.75,11.36-1.89,16.66-4.34,1.2-.55,1.85-1.27,2.02-2.67,1.58-13.33,2.21-26.71,2.24-40.13.02-12.07-.8-24.13-.48-36.2.06-2.33.19-4.66,1.09-6.84.95-2.31,3.41-3.92,5.66-3.72,2.52.23,4.01,1.83,4.92,4.05.49,1.21.58,2.49.44,3.76-.81,7.64.05,15.27.04,22.91,0,.87-.2,1.83.95,2.27,2.28.87,3.62,2.84,5.21,4.52,4.29,4.53,9.31,7.12,15.79,6.15,4.69-.71,8.61-2.99,12.25-5.79,8.43-6.48,14.27-15.1,19.25-24.31,7.69-14.2,12.67-29.39,15.91-45.19.79-3.87,2.13-7.39,5.26-10.16,2.22-1.96,3.52-4.68,3.7-7.73.46-7.6-4.33-13.01-12.77-13.84-6.88-.68-13.41,3.89-15.14,10.49-.92,3.5.28,6.64,1.34,9.84,1.03,3.12.6,5.92-1.41,8.67-6.57,9.03-12.47,18.5-17.81,28.32-1.6,2.94-2.63,5.53-.97,8.9,1.12,2.29.69,4.9-1.56,6.71-3.41,2.74-7.69,1.41-9.61-3.05-1.33-3.09-2.53-6.24-4.08-9.25-5.52-10.75-12.97-20.1-21.04-29-.82-.9-1.34-.68-2.22-.03-5.94,4.41-12.5,7.66-19.5,10.04-8.85,3.02-17.97,4.45-27.28,5.06-8.94.59-17.81.2-26.65-1.05-4.09-.58-5.95-3.02-5.6-6.76.28-3,2.96-5.07,6.68-4.9,3.51.16,7,.7,10.51.84,13.79.56,27.4-.27,40.47-5.27,14.41-5.51,25.33-14.69,30.83-29.45,4.46-11.95,4.25-24.21,1.77-36.52-2.69-13.35-7.91-25.72-14.51-37.57-.98-1.76-1.68-3.71-4.15-3.95-.66-.06-1.08-.74-1.49-1.29-1.57-2.1-1.37-4.32-.51-6.6.76-1.29,1.46-2.61,2.29-3.85,5.99-8.9,11.27-18.19,15.21-28.19.6-1.53,1.39-3.05,1.43-4.96-.46.2-.75.28-.99.43-9.58,5.95-17.97,13.17-24.19,22.69-1.12,1.71-2.38,3.26-4.07,4.42Zm10.24,261.19c-5,1.33-9.65,2.45-14.41,3.04-15,1.86-29.91,1.46-44.72-1.69-1.22-.26-1.74-.1-1.82,1.31-.81,15.01,2.63,28.77,12.39,40.47,6.81,8.16,15.38,13.26,26.34,13.55,1.34.04,2.12-.3,2.86-1.52,7.49-12.27,12.38-25.59,16.01-39.42,1.33-5.06,2.47-10.16,3.34-15.74Zm-14.53,70.06c-1.45,1-1.79,2.22-2.55,3.14-6.18,7.45-12.74,14.52-20.63,20.23-.95.69-1.3,1.51-1.27,2.67.07,2.85-.06,5.7.06,8.54.26,6.55-1.09,5.18,5.74,7.2,11.58,3.43,23.44,5.32,35.52,6.07,11.26.7,22.42-.08,33.59-1.37,1.98-.23,1.76-.94,1.09-2.26-2.16-4.22-5.58-7.18-9.59-9.5-7.93-4.58-16.65-6.09-25.66-6.29-5.86-.13-11.61.96-17.36,1.94-2.93.5-5.76-1.15-6.69-3.72-.92-2.57-.14-5.63,2.49-6.72,2.83-1.17,3.34-3.18,3.58-5.69.11-1.11.45-2.2.57-3.31.37-3.53,1.19-7.02,1.11-10.95Zm128.23-264.3c12.34,10.99,18.87,24.34,19.25,40.33.38,16-5.43,29.59-17.9,40.83,3.33,0,6.06.03,8.78-.02.73-.01,1.16-.67,1.57-1.19,9.42-12.04,14.82-25.36,14.08-40.99-.53-11.13-3.88-21.29-9.13-30.92-2.21-4.05-4.09-8.85-10.34-7.77-1.87.32-3.76-.74-6.31-.27Zm-264.39,41.29c-4.04-.19-8.08-.4-12.12-.57-.59-.03-1.22-.18-1.75.21-.94.7-2.59,6.44-2.19,7.64,1.97,5.9,3.83,11.83,5.12,17.91.37,1.75.79,1.9,2.14.67,6.62-6.02,13.91-11.12,21.76-15.41,1.7-.93,4.37-1.48,4.88-2.84.6-1.63-1.8-3.33-2.55-5.18-.5-1.24-1.32-1.79-2.73-1.83-4.19-.12-8.38-.4-12.56-.6Zm190.6,35.98c.95-1.61,1.59-2.99,2.49-4.16,2.09-2.74,3.02-5.37-.01-8.07-.26-.23-.37-.64-.54-.98-2.48-4.83-4.32-9.88-5.19-15.25-.25-1.53-.83-2.2-2.45-2.16-2.32.05-4.69.15-6.95-.26-3.18-.58-5.22.49-6.88,3.16-.69,1.11-.81,1.64.11,2.61,2.28,2.38,4.49,4.83,6.6,7.35,4.62,5.51,8.87,11.29,12.82,17.76Zm12.24-29.84c-.75,0-1.5.04-2.24,0-1.43-.1-1.77.81-1.43,1.84.67,2.09,1.55,4.11,2.36,6.15.37.93,1.15,1.41,1.93.76,1.71-1.42,2.98-3.35,3.62-5.39.72-2.3-.8-3.34-4.23-3.35Z" fill="#8d4847"/>
      <path d="m374.58,258.31c6.66-.31,7.82-6.09,5.05-10.21-10.23-15.15-23.14-26.99-40.97-32.59-1.17-.37-1.4-.76-.94-1.89,1.22-3.03,3.01-4.38,6.28-4.51,8.22-.34,15.46,2.64,22.11,7.02,9,5.94,16.61,13.45,23.33,21.87,1.36,1.7,2.87,3.22,5.19,3.7,1.6.33,3.28.19,4.21-.91,2.3-2.71,5.51-3.31,8.56-4.08,12.34-3.09,24.84-3.93,37.38-1.54,4.9.93,11.17-3.07,13.44-6.82,7.24-11.92,16.88-21.36,29.47-27.52,4.81-2.36,9.95-3.74,15.45-2.54,1.07.23,1.97.75,2.78,1.4,3.15,2.53,3,3.71-.46,5.52-13.86,7.24-25.38,17.13-34,30.26-1.49,2.27-2.4,4.67-.95,7.36,1.48,2.74,3.68,3.54,7.48,2.66,2.33,2.99,5.62,4.98,8.12,7.81.57.65.97,1.78,2.19,1.65-.86,2.28-1.06,4.5.51,6.6.41.55.83,1.23,1.49,1.29,2.46.23,3.17,2.19,4.15,3.95,6.6,11.84,11.82,24.22,14.51,37.57,2.48,12.32,2.69,24.57-1.77,36.52-5.5,14.76-16.43,23.94-30.83,29.45-13.07,5-26.69,5.83-40.47,5.27-3.51-.14-7-.68-10.51-.84-3.73-.17-6.4,1.9-6.68,4.9-.35,3.74,1.5,6.18,5.6,6.76,8.84,1.24,17.71,1.64,26.65,1.05,9.31-.62,18.43-2.05,27.28-5.06,7-2.39,13.55-5.63,19.5-10.04.88-.65,1.4-.87,2.22.03,8.07,8.9,15.52,18.24,21.04,29,1.54,3.01,2.74,6.15,4.08,9.25,1.92,4.46,6.2,5.79,9.61,3.05,2.25-1.81,2.69-4.41,1.56-6.71-1.65-3.37-.62-5.96.97-8.9,5.34-9.82,11.24-19.29,17.81-28.32,2.01-2.76,2.44-5.55,1.41-8.67-1.05-3.2-2.26-6.35-1.34-9.84,1.73-6.6,8.26-11.17,15.14-10.49,8.43.83,13.23,6.25,12.77,13.84-.19,3.05-1.48,5.77-3.7,7.73-3.13,2.76-4.47,6.29-5.26,10.16-3.24,15.79-8.22,30.98-15.91,45.19-4.98,9.2-10.82,17.82-19.25,24.31-3.64,2.8-7.56,5.08-12.25,5.79-6.48.98-11.5-1.62-15.79-6.15-1.59-1.68-2.93-3.65-5.21-4.52-1.15-.44-.95-1.4-.95-2.27.01-7.64-.85-15.27-.04-22.91.14-1.27.05-2.56-.44-3.76-.91-2.23-2.4-3.82-4.92-4.05-2.25-.2-4.71,1.41-5.66,3.72-.9,2.18-1.03,4.5-1.09,6.84-.31,12.07.5,24.13.48,36.2-.02,13.42-.66,26.8-2.24,40.13-.16,1.39-.82,2.11-2.02,2.67-5.3,2.45-10.94,3.59-16.66,4.34-5.8.76-11.63,1.08-17.48.96-8.86-.17-17.69-.83-26.18-3.46-5.57-1.72-11.89,2.73-12.47,7.8-.54,4.7-1.01,9.4-.7,14.11.51,7.73,1.91,15.31,4.85,22.51,6.3,15.45,16.42,27.22,32.51,33.04,1.75.63,3.57,1.19,5.4,1.49,1.8.29,1.54.77.6,1.87-7.22,8.48-15.82,15.24-25.35,20.93-7.52,4.49-15.38,8.08-23.93,10.04-2.47.56-5.04.66-7.54,1.12-1.39.26-1.53-.24-1.35-1.42,1.7-10.85,2.14-21.79,1.48-32.71-1.03-17.13-5.42-33.27-16.51-46.86-9.31-11.41-21.34-18.07-36.14-19.57-6.84-.69-13.43-.13-19.75,2.74-1.14.52-2.02,1.3-2.72,2.28-1.44,2.01-.86,4.33,1.29,5.54,1.44.81,3.01.85,4.59.84,6.44,0,12.93-.28,19.26,1.03,15.45,3.18,25.42,12.99,31.68,26.98,5.95,13.31,7.25,27.45,6.6,41.79-.44,9.79-1.56,19.53-4.27,29.03-.61,2.15-1.18,3.56-3.86,3.51-2.49-.05-5.09.2-6.76,2.72-2.26,3.4-.94,7.47,2.99,8.65,1.37.41,2.78.53,4.22.51,9.57-.14,19,.88,28.08,4.05,7.11,2.49,13.62,5.91,17.85,12.54,1.35,2.12,2.12,4.44,2.47,6.93.2,1.4-.04,2.39-1.74,2.38-.52,0-1.03.17-1.55.19-16.42.7-32.56-.49-48.37-5.61-8.34-2.7-16.72-5.2-24.63-9.03-.47-.23-.95-.45-1.42-.69-5.6-2.88-5.92-3.89-5.56-10.12,1.04-17.88,4.03-35.51,6.64-53.19.11-.74.1-1.5.1-2.25.02-3.62-1.9-6.09-4.95-6.4-3.4-.34-6.06,1.61-6.69,5.25-1.03,6.04-1.87,12.12-2.78,18.18-.52,3.48-.97,6.96-1.52,10.44-.1.62-.01,1.39-1.25,1.4-10.76.07-21.17-1.66-31.12-5.86-.9-.38-1.73-.84-2.45-1.54-2.68-2.58-5.19-3.02-8.31-.97-9.17,6.02-19.38,9.35-29.91,11.86-10.94,2.61-22.06,4.01-33.25,5.03-7.17.66-14.36,1.03-21.53,1.05-11.11.02-22.1-1.32-32.81-4.47-1.12-.33-2.36-.32-3.71-1.4,1.48-.48,2.71-.89,3.94-1.27,16.17-5.05,32.09-10.81,47.75-17.22,12.15-4.98,23.2-11.82,32.85-20.82.49-.45,1.04-.85,1.61-1.2,3.33-2.07,4.19-5.15,2.32-8.66-1.62-3.04-3.54-5.91-4.99-9.05-4.29-9.3-5.46-19.02-4.26-29.14.94-7.95,2.87-15.57,6.28-22.84,3.24-6.91,7.35-13.22,12.6-18.74,7.27-7.65,14.63-15.23,21.97-22.81,2.56-2.64,4.94-5.43,7.11-8.39.6-.82,1.07-1.17,2.18-.65,12.18,5.72,24.11,4.07,35.65-1.75,14.9-7.52,25.54-19.59,34.44-33.36,2.04-3.16,1.68-6.78-.6-8.58-3.04-2.4-6.77-1.78-9.11,1.7-2.22,3.3-4.44,6.59-6.91,9.69-7.43,9.32-15.99,17.22-27.3,21.65-13.71,5.37-26.35.59-33.16-12.58-3.67-7.1-5.36-14.73-6.05-22.63-.16-1.86-.33-3.73-.37-5.6-.07-2.95.08-5.46,2.37-8.18,4.75-5.65,7.17-12.78,9.57-19.7,3.61-10.42,5.21-21.21,4.66-32.26-.09-1.79-.27-3.58-.43-5.37-.13-1.37.26-1.64,1.47-.87,2.23,1.44,3.89,3.39,4.62,5.9,1.41,4.78,1.34,9.56-1.45,13.85-2.35,3.61-2.48,7.33-1.13,11.16,4.67,13.26,7.63,26.9,9.16,40.85.42,3.87.86,7.73,1.24,11.6.36,3.64,2.75,6.06,6.02,6.01,3.22-.06,5.69-2.66,5.71-6.28.04-5.48-.76-10.9-1.62-16.29-.4-2.51.1-4.4,1.85-6.3,8.67-9.41,19.08-16.29,30.57-21.71.95-.45,1.49-.15,2.17.44,1.63,1.42,3.23,2.92,5.02,4.12,2.66,1.78,6.52,1.25,8.22-.9,1.81-2.29,1.38-6.06-1.26-8.26-8.73-7.33-14.78-16.41-18.24-27.26-3.03-9.52-3.46-19.3-2.72-29.13.72-9.6,2.8-18.95,6.63-27.84.8-1.86,1.7-3.67,2.51-5.52.91-2.11,1.28-4.29.52-6.55,1.85-.79,2-2.86,3.11-4.22,2.09-2.57,3.96-5.31,5.93-7.98Zm93.02,52.98c-6.09,0-9.6.59-13.48,2.25-5.35,2.29-7.15,7.47-4.4,12.58,2.41,4.49,6.38,7.07,10.91,8.89,2.9,1.17,3.03,1.22,1.84,4.07-.17.41-.37.82-.56,1.23-1.92,4.27-3.19,4.42-5.89.74-.85-1.16-1.82-2.3-3.54-1.62-1.76.7-2.26,2.21-2.03,3.85.52,3.55,2.21,6.35,5.78,7.64,3.2,1.15,6.09.42,8.55-1.77.98-.87,1.55-.96,2.59-.1,2.76,2.28,5.93,2.61,9.02.89,3.39-1.88,5.9-4.61,6.31-8.72.13-1.32-.12-2.63-1.54-3.2-1.44-.57-2.8-.35-3.89.87-1.1,1.23-2.18,2.47-3.3,3.67-.66.71-1.4,1.2-2.3.32-1.99-1.94-1.37-6.96,1-8.33,3.33-1.92,6.38-4.18,8.7-7.32,4.39-5.92,2.42-12.27-4.58-14.6-3.08-1.03-6.26-1.47-9.19-1.34Zm-35.54-1.35c3.05-.19,5.71-1.14,7.91-3.09,1.53-1.36,2.33-3.18,1.71-5.23-1.48-4.88-4.58-8.37-9.36-10.22-3.96-1.54-8.57,0-10.85,3.51-2.41,3.69-1.95,7.87,1.17,11.04,2.63,2.67,5.99,3.54,9.43,3.99Zm62.36-20.2c-4.42.07-9.35,4.15-11.25,9.68-1.04,3.01.2,5.55,3.05,7.1,4.44,2.41,8.71,1.59,12.78-.83,3.3-1.96,5.09-6.36,4.14-9.46-1.23-4-4.57-6.47-8.72-6.48Z" fill="#f0b278"/>
      <path d="m273.85,327.49c-.09,1.37.37,2.6.72,3.91,1.74,6.39,2.9,12.81,1.22,19.47-.64,2.56-.07,5.26-.93,7.95-1.52,4.77-3.51,9.26-6.27,13.38-2.47,3.69-5.62,6.99-9.5,8.97-4.97,2.54-10.23,3.73-16.19,2.48-4.71-.99-8.38-3.4-11.8-6.08-3.23-2.53-5.56-6.19-7.83-9.79-3.07-4.88-4.29-10.35-6.04-15.66-.73-2.22-.05-3.06,2.27-2.99,4.1.13,8.21-.29,12.32.38,3.12.5,6.26-.23,9.38-.44,2.36-.16,4.26-4.91,2.82-6.83-.98-1.31-.86-3.52-3.07-3.82-1.55-.21-3.1-.36-4.65-.56-5.51-.7-11.05-.38-16.58-.44-3.1-.03-3.1-.22-2.67-3.22.94-6.47,3.05-12.48,6.32-18.11,1.64-2.81,4.27-4.71,6.33-7.13,2.28-2.67,5.54-4.1,8.61-5.42,2.17-.94,4.97-.47,7.48-.59.36-.02.73.25,1.09.23,6.84-.35,11.74,3.32,16.25,7.79,1,.99,2.87,1.78,3.11,2.6.47,1.62,1.64,2.57,2.34,3.89.52.97,1.1,1.92,1.65,2.87.31,1.34.56,2.71,1.78,3.59l.06-.02c-.09,1.53-.17,3.06,1.77,3.59Z" fill="#c94344"/>
      <path d="m585.83,389.35c-1.04.29-2.12.47-3.14.16.73-3.22,1.43-6.44,2.12-9.67.33-1.58.69-3.15.99-4.73.25-1.3.23-2.21,1.17-3.28,1.59-1.82,2.96-3.82,4.4-5.76,1.72-2.31,1.98-5.01,2.91-7.54,1.45-3.93.39-7.75-.04-11.62-.2-1.77-1.28-3.19-2.07-4.59-2.19-3.92-5.21-7.65-8.97-9.75-4.99-2.79-10.6-4.41-16.75-3.52-3.64.52-7.2,1.12-10.18,3.07-3.38,2.21-6.77,4.57-8.93,8.25-1.1,1.88-2.29,3.61-3,5.76-.54,1.64-1.95,2.55-3.63,2.4-.75-.07-1.51-.17-2.25-.3-.45-.08-1.18-.07-1.54-.34-.64-.49-.52-1.95-.55-2.64-.11-3.48,1.16-6.59,2.29-9.55,1.03-2.7,2.43-5.49,4.36-7.88,3.3-4.1,7.06-7.74,11.54-10.41,2.82-1.69,5.98-2.89,9.35-3.47,2.72-.47,5.41-.79,8.18-.87,5.06-.14,9.54,1.65,14.05,3.56,5.54,2.35,9.88,6.24,13.69,10.71,3.38,3.97,5.68,8.54,7.22,13.65,1.01,3.36,1.52,6.72,2.17,10.1.5,2.6.46,5.18-.09,7.78-.67,3.17-.83,6.44-2.27,9.46-2.11,4.43-4.05,8.84-7.64,12.45-1.82,1.84-3.81,3.5-5.8,5.14-.92.76-1.71,1.57-2.82,1.98-1.26.47-2.59.81-3.88,1.21-.29.09-.58.18-.88.26Z" fill="#c84344"/>
      <path d="m473.7,576.77c.07,3.93-.74,7.42-1.11,10.95-.12,1.11-.46,2.2-.57,3.31-.24,2.51-.75,4.52-3.58,5.69-2.63,1.08-3.41,4.15-2.49,6.72.93,2.57,3.76,4.23,6.69,3.72,5.75-.99,11.5-2.07,17.36-1.94,9.01.19,17.72,1.71,25.66,6.29,4.01,2.32,7.42,5.28,9.59,9.5.68,1.32.89,2.03-1.09,2.26-11.17,1.29-22.33,2.07-33.59,1.37-12.08-.75-23.94-2.64-35.52-6.07-6.83-2.03-5.47-.65-5.74-7.2-.12-2.84,0-5.7-.06-8.54-.03-1.16.32-1.98,1.27-2.67,7.89-5.71,14.44-12.78,20.63-20.23.76-.92,1.11-2.14,2.55-3.14Z" fill="#efb178"/>
      <path d="m601.93,312.47c2.54-.47,4.43.59,6.31.27,6.25-1.07,8.13,3.72,10.34,7.77,5.25,9.63,8.6,19.78,9.13,30.92.74,15.63-4.66,28.95-14.08,40.99-.41.52-.84,1.17-1.57,1.19-2.72.05-5.44.02-8.78.02,12.47-11.23,18.28-24.83,17.9-40.83-.38-15.99-6.91-29.34-19.25-40.33Z" fill="#f88d8e"/>
      <path d="m277.45,381.05c-.29-.98.47-1.53.92-2.18,8.54-12.54,11.07-26.45,9.51-41.31-1.1-10.49-4.69-20.06-10.73-28.7-.81-1.16-1.81-2.19-2.68-3.31-.52-.66-.65-1.43.51-1.21,1.75.33,3.45-.08,5.14-.19,2.02-.13,3.1.61,4.1,2.3,4.87,8.26,8.72,16.87,9.99,26.5,1.58,11.95.24,23.56-3.63,34.94-1.31,3.84-3.16,7.44-4.74,11.15-.56,1.32-1.38,2.21-3.04,2.11-1.77-.11-3.56.34-5.34-.08h0Z" fill="#f88d8d"/>
      <path d="m540.39,359.9c3.44.01,4.95,1.05,4.23,3.35-.64,2.04-1.91,3.97-3.62,5.39-.78.65-1.56.17-1.93-.76-.81-2.04-1.68-4.06-2.36-6.15-.33-1.03,0-1.95,1.43-1.84.74.05,1.49,0,2.24.01Z" fill="#c84344"/>
      <path d="m583.39,385.1c-.03.73.1,1.52-.12,2.19-1.07,3.22-1.1,3.21,2.41,3.23-.65,1.31-2.05,1.41-3.07,1.26-1.01-.15-1-1.46-1-2.47,0-1.68.39-3.14,1.78-4.2Z" fill="#8d4844"/>
      <path d="m273.85,327.49c-1.93-.54-1.86-2.06-1.77-3.59,1.84.58,1.84,2.07,1.77,3.59Z" fill="#8d4844"/>
      <path d="m272.02,323.91c-1.22-.89-1.47-2.25-1.78-3.59,3.09-.04,1.27,2.35,1.78,3.59Z" fill="#c84344"/>
      <path d="m277.45,381.05c-.07.06-.14.12-.21.18.01-.05,0-.11.04-.13.05-.03.11-.04.17-.05h0Z" fill="#f88d8d"/>
      <path d="m467.6,311.29c2.93-.13,6.11.31,9.19,1.34,7,2.33,8.96,8.68,4.58,14.6-2.33,3.14-5.37,5.39-8.7,7.32-2.37,1.37-2.98,6.39-1,8.33.9.88,1.64.38,2.3-.32,1.12-1.2,2.21-2.44,3.3-3.67,1.09-1.22,2.45-1.44,3.89-.87,1.42.56,1.67,1.87,1.54,3.2-.41,4.11-2.93,6.84-6.31,8.72-3.09,1.72-6.26,1.39-9.02-.89-1.04-.86-1.61-.77-2.59.1-2.47,2.18-5.36,2.92-8.55,1.77-3.57-1.28-5.26-4.08-5.78-7.64-.24-1.63.26-3.15,2.03-3.85,1.72-.68,2.69.46,3.54,1.62,2.7,3.68,3.97,3.53,5.89-.74.18-.41.38-.81.56-1.23,1.2-2.85,1.07-2.9-1.84-4.07-4.53-1.82-8.5-4.4-10.91-8.89-2.74-5.11-.95-10.29,4.4-12.58,3.88-1.66,7.39-2.26,13.48-2.25Z" fill="#8d4845"/>
      <path d="m432.06,309.94c-3.44-.45-6.8-1.32-9.43-3.99-3.12-3.17-3.58-7.35-1.17-11.04,2.29-3.51,6.89-5.05,10.85-3.51,4.79,1.85,7.88,5.35,9.36,10.22.62,2.05-.18,3.87-1.71,5.23-2.2,1.95-4.86,2.9-7.91,3.09Z" fill="#8d4844"/>
      <path d="m494.42,289.75c4.15,0,7.48,2.49,8.72,6.48.96,3.1-.84,7.49-4.14,9.46-4.07,2.42-8.34,3.24-12.78.83-2.86-1.55-4.09-4.09-3.05-7.1,1.91-5.53,6.83-9.6,11.25-9.68Z" fill="#8d4845"/>
    </g>
    <path d="m264.07,311.68s6.95,8.25,10.79,20.59l1.49-11.35-8.31-13.95-3.97,4.71Z" fill="#8d4847"/>
  </g>
</svg>